<svg width="25" height="12" viewBox="0 0 25 12" fill="none" xmlns="http://www.w3.org/2000/svg">
<path d="M0.941704 0.911769C1.21876 0.408213 1.81656 0.281929 2.27694 0.629707L13.0598 8.77535C13.5201 9.12312 13.6687 9.81327 13.3917 10.3168C13.1146 10.8204 12.5168 10.9467 12.0564 10.5989L1.27363 2.45325C0.813255 2.10547 0.664648 1.41532 0.941704 0.911769Z" fill="#FFFCF4"/>
<path d="M24.4997 0.911769C24.2226 0.408213 23.6248 0.281929 23.1645 0.629707L12.3816 8.77535C11.9213 9.12312 11.7727 9.81327 12.0497 10.3168C12.3268 10.8204 12.9246 10.9467 13.385 10.5989L24.1678 2.45325C24.6282 2.10547 24.7768 1.41532 24.4997 0.911769Z" fill="#FFFCF4"/>
</svg>
