<svg width="53" height="49" viewBox="0 0 53 49" fill="none" xmlns="http://www.w3.org/2000/svg">
<path d="M35.992 11.3875C34.2957 7.41407 31.2792 4.1484 27.4526 2.14275C23.626 0.137098 19.2241 -0.485445 14.9914 0.380399C10.7586 1.24624 6.95482 3.54734 4.22318 6.89455C1.49155 10.2418 -0.000276157 14.4296 3.83441e-08 18.75V34.2188C0.000975837 35.0887 0.346991 35.9227 0.962133 36.5379C1.57728 37.153 2.41131 37.499 3.28125 37.5H16.5626C18.0259 40.8414 20.4304 43.6845 23.4825 45.6822C26.5346 47.6799 30.1022 48.7459 33.75 48.75H49.2188C50.0887 48.749 50.9227 48.403 51.5379 47.7879C52.153 47.1727 52.499 46.3387 52.5 45.4688V30C52.501 25.4155 50.8216 20.9896 47.7796 17.5598C44.7375 14.1299 40.5438 11.934 35.992 11.3875ZM48.75 45H33.75C31.0976 44.9968 28.4932 44.2919 26.2013 42.9569C23.9094 41.6218 22.0115 39.7041 20.7003 37.3985C23.2686 37.1326 25.7542 36.3386 28.0009 35.0662C30.2477 33.7938 32.207 32.0706 33.756 30.0048C35.3049 27.939 36.4099 25.5752 37.0016 23.0619C37.5933 20.5486 37.6589 17.9401 37.1943 15.4003C40.4837 16.1759 43.4147 18.0398 45.5121 20.6898C47.6096 23.3397 48.7505 26.6204 48.75 30V45Z" fill="black"/>
</svg>
