<svg width="38" height="38" viewBox="0 0 38 38" fill="none" xmlns="http://www.w3.org/2000/svg">
<path fill-rule="evenodd" clip-rule="evenodd" d="M36.7982 4.23678C37.2536 3.76527 37.5056 3.13377 37.4999 2.47828C37.4942 1.82278 37.2313 1.19575 36.7678 0.732234C36.3042 0.268714 35.6772 0.00579055 35.0217 9.45062e-05C34.3662 -0.00560154 33.7347 0.246385 33.2632 0.701781L18.7807 15.1843L4.29822 0.701781C3.82671 0.246385 3.19521 -0.00560154 2.53972 9.45062e-05C1.88423 0.00579055 1.25719 0.268714 0.793674 0.732234C0.330154 1.19575 0.0672309 1.82278 0.0615349 2.47828C0.0558388 3.13377 0.307826 3.76527 0.763221 4.23678L15.2457 18.7193L0.763221 33.2018C0.524446 33.4324 0.33399 33.7083 0.202967 34.0133C0.0719447 34.3183 0.00297893 34.6463 9.43926e-05 34.9783C-0.00279015 35.3102 0.0604636 35.6394 0.186166 35.9467C0.311868 36.2539 0.497501 36.533 0.732233 36.7678C0.966964 37.0025 1.24609 37.1881 1.55334 37.3138C1.86058 37.4395 2.18978 37.5028 2.52172 37.4999C2.85367 37.497 3.18172 37.4281 3.48673 37.297C3.79174 37.166 4.0676 36.9756 4.29822 36.7368L18.7807 22.2543L33.2632 36.7368C33.7347 37.1922 34.3662 37.4442 35.0217 37.4385C35.6772 37.4328 36.3042 37.1698 36.7678 36.7063C37.2313 36.2428 37.4942 35.6158 37.4999 34.9603C37.5056 34.3048 37.2536 33.6733 36.7982 33.2018L22.3157 18.7193L36.7982 4.23678Z" fill="black"/>
</svg>
