<svg width="21" height="22" viewBox="0 0 21 22" fill="none" xmlns="http://www.w3.org/2000/svg">
<path fill-rule="evenodd" clip-rule="evenodd" d="M0.508062 2.82679C0.404076 1.60679 1.31783 0.5 2.56303 0.5H6.16157C7.19377 0.5 8.08152 1.28875 8.18944 2.34372L8.18944 2.34373C8.2696 3.12751 8.41911 3.88957 8.63135 4.62317C8.95085 5.72745 8.65088 6.92217 7.86286 7.7392L6.57584 9.07362C7.96997 11.6082 9.99944 13.7156 12.4365 15.1636L13.705 13.8484L13.705 13.8484C14.495 13.0295 15.6633 12.7083 16.75 13.0462C17.455 13.2655 18.187 13.4198 18.9397 13.5026C19.47 13.5609 19.9332 13.8332 20.2539 14.2828C20.5692 14.7247 20.7302 15.3117 20.7302 15.9939V19.32C20.7302 20.5634 19.6883 21.5415 18.4636 21.4293C8.92381 20.5553 1.34805 12.6826 0.508062 2.82679ZM2.56303 1.5C1.95749 1.5 1.44552 2.05048 1.50445 2.74186L1.50445 2.74186C2.3055 12.1409 9.52318 19.606 18.5548 20.4334L18.518 20.8353L18.5548 20.4334C19.1736 20.4901 19.7302 19.9954 19.7302 19.32V15.9939C19.7302 15.4618 19.6043 15.094 19.4399 14.8635C19.2809 14.6407 19.0715 14.5231 18.8304 14.4966L18.8304 14.4966C18.0133 14.4068 17.2185 14.2392 16.4531 14.0011C15.7413 13.7798 14.9626 13.9851 14.4248 14.5427C14.4248 14.5427 14.4248 14.5427 14.4248 14.5427L12.8849 16.1392C12.727 16.3029 12.4786 16.3394 12.2803 16.2282C9.41994 14.6231 7.0651 12.1804 5.51983 9.22008C5.4203 9.0294 5.45387 8.79643 5.60319 8.6416L7.14309 7.04499L7.14309 7.04498C7.68278 6.48543 7.89073 5.66142 7.67075 4.90109L8.15105 4.76213L7.67074 4.90109C7.44195 4.11027 7.28093 3.28926 7.19463 2.44549C7.13891 1.90077 6.68093 1.5 6.16157 1.5H2.56303Z" fill="#FFFCF4"/>
</svg>
