<svg width="25" height="20" viewBox="0 0 25 20" fill="none" xmlns="http://www.w3.org/2000/svg">
<path d="M23.5178 17.576H22.2357C22.068 17.576 21.9323 17.4403 21.9323 17.2726C21.9323 17.105 22.068 16.9693 22.2357 16.9693H23.5178C24.0004 16.9693 24.3928 16.5768 24.3928 16.0943V12.0875C24.3928 11.4919 24.1458 10.5504 23.8535 10.0315L20.8271 4.66073C20.5607 4.18794 19.8771 3.78852 19.3344 3.78852H17.39C16.9076 3.78852 16.515 4.181 16.515 4.66351V9.73076C16.515 10.2133 16.9076 10.6057 17.39 10.6057H21.5145C21.682 10.6057 21.8178 10.7416 21.8178 10.9091C21.8178 11.0767 21.682 11.2126 21.5145 11.2126H17.39C16.573 11.2126 15.9082 10.5477 15.9082 9.73069V4.66344C15.9082 3.84647 16.573 3.18164 17.39 3.18164H19.3344C20.0946 3.18164 20.9824 3.70044 21.3556 4.3627L24.382 9.73347C24.7283 10.3479 24.9996 11.3818 24.9996 12.0875V16.0942C24.9996 16.9114 24.3349 17.576 23.5178 17.576Z" fill="#FFFCF4"/>
<path d="M12.9124 0H1.48179C0.66483 0 0 0.66476 0 1.48179V16.0942C0 16.9112 0.66483 17.576 1.48179 17.576H3.94928C4.09926 18.77 5.11882 19.6973 6.35263 19.6973C7.68965 19.6973 8.77729 18.6096 8.77729 17.2726C8.77729 15.9356 7.68965 14.8479 6.35263 14.8479C5.90386 14.8479 5.46536 14.9715 5.08502 15.2054C4.94219 15.2932 4.89763 15.4801 4.98536 15.6228C5.07308 15.7657 5.26013 15.81 5.40262 15.7225C5.68752 15.5474 6.01609 15.4548 6.35263 15.4548C7.35491 15.4548 8.17049 16.2702 8.17049 17.2726C8.17049 18.2749 7.35498 19.0905 6.35263 19.0905C5.35029 19.0905 4.53492 18.275 4.53492 17.2726C4.53492 17.105 4.39909 16.9692 4.23148 16.9692H1.48179C0.999292 16.9692 0.606807 16.5767 0.606807 16.0942V1.48179C0.606807 0.999292 0.999292 0.606807 1.48179 0.606807H12.9124C13.3949 0.606807 13.7874 0.999292 13.7874 1.48179V3.48524C13.7874 3.65285 13.9233 3.78861 14.0908 3.78861C14.2583 3.78861 14.3942 3.65278 14.3942 3.48524V1.48179C14.3942 0.66476 13.7295 0 12.9124 0Z" fill="#FFFCF4"/>
<path d="M18.3322 14.8481C17.8835 14.8481 17.4452 14.9717 17.0645 15.2057C16.9216 15.2934 16.8772 15.4801 16.9648 15.6229C17.0526 15.7657 17.2395 15.8104 17.3821 15.7226C17.6671 15.5475 17.9956 15.4549 18.3322 15.4549C19.3345 15.4549 20.1498 16.2703 20.1498 17.2727C20.1498 18.2749 19.3345 19.0905 18.3322 19.0905C17.3335 19.0905 16.5208 18.2809 16.5149 17.2837C16.515 17.28 16.516 17.2765 16.516 17.2728C16.516 17.1052 16.3802 16.9694 16.2126 16.9694H10.0905C9.92293 16.9694 9.78711 17.1052 9.78711 17.2728C9.78711 17.4404 9.92293 17.5762 10.0905 17.5762H15.9287C16.0787 18.7701 17.0983 19.6974 18.3322 19.6974C19.6691 19.6974 20.7568 18.6098 20.7568 17.2727C20.7568 15.9357 19.6691 14.8481 18.3322 14.8481Z" fill="#FFFCF4"/>
</svg>
