<svg width="76" height="73" viewBox="0 0 76 73" fill="none" xmlns="http://www.w3.org/2000/svg">
<path d="M38.064 15.9736C36.5573 15.9736 35.1523 15.5264 34.1085 14.7145C34.0492 14.6685 33.9995 14.6113 33.9625 14.5461C33.9254 14.481 33.9015 14.4092 33.8923 14.3349C33.883 14.2606 33.8886 14.1852 33.9086 14.113C33.9287 14.0409 33.9628 13.9733 34.009 13.9143C34.2035 13.6644 34.5622 13.6226 34.8126 13.8158C35.6564 14.4718 36.811 14.8331 38.064 14.8331C40.554 14.8331 42.5794 12.814 42.5794 10.3318C42.5794 9.75103 42.5392 9.14294 42.2485 8.6268C42.1233 8.45143 40.7519 6.88778 39.5337 5.51803C39.4635 5.4394 39.4166 5.3429 39.3982 5.23928C39.3799 5.13567 39.3907 5.029 39.4296 4.93118L40.2903 2.75059L40.2915 1.14858H34.5678L34.5701 2.72435L36.507 6.58323C36.7607 6.84215 38.0282 8.01258 38.9 8.80888C39.0117 8.91121 39.0781 9.05353 39.0846 9.20459C39.0911 9.35565 39.0372 9.50311 38.9347 9.61458C38.884 9.66988 38.8229 9.71467 38.7548 9.74637C38.6867 9.77808 38.613 9.79608 38.538 9.79933C38.4629 9.80259 38.3879 9.79105 38.3173 9.76536C38.2467 9.73968 38.1819 9.70036 38.1266 9.64966C35.5515 7.29712 35.5392 7.25805 35.4811 7.07042L33.4862 3.11402C33.4467 3.03492 33.4261 2.94784 33.4258 2.85952L33.4235 0.578695C33.4235 0.427277 33.4839 0.282418 33.5912 0.174914C33.6443 0.121937 33.7073 0.0799106 33.7767 0.0512377C33.8462 0.0225648 33.9206 0.00780841 33.9957 0.0078125H40.865C41.0169 0.0078125 41.1622 0.0679805 41.2695 0.174914C41.3768 0.28209 41.4371 0.427291 41.4372 0.578695L41.4349 2.85952C41.4349 2.93081 41.4215 3.00153 41.3947 3.06782L40.6224 5.02343C43.1552 7.87328 43.2234 8.01686 43.2646 8.10326C43.666 8.81273 43.7241 9.59619 43.7241 10.3318C43.7238 13.4427 41.1844 15.9736 38.064 15.9736ZM32.8511 11.511C32.776 11.5111 32.7015 11.4963 32.6321 11.4677C32.5626 11.4391 32.4995 11.3971 32.4464 11.3441C32.3933 11.2911 32.3511 11.2283 32.3224 11.1591C32.2936 11.0899 32.2788 11.0157 32.2789 10.9408C32.2789 10.3818 32.3637 9.82047 32.5314 9.27197C32.6455 8.83768 33.059 8.51859 33.5318 8.51859C33.7866 8.51859 34.0392 8.6144 34.2248 8.78079L36.0476 10.1049C36.1701 10.1943 36.252 10.3285 36.2753 10.4781C36.2985 10.6276 36.2613 10.7802 36.1717 10.9024C36.1275 10.9629 36.0717 11.0141 36.0075 11.0531C35.9434 11.0921 35.8721 11.1181 35.7979 11.1296C35.7236 11.1411 35.6478 11.1378 35.5748 11.12C35.5019 11.1023 35.4331 11.0703 35.3725 11.026L33.591 9.72793C33.4781 10.14 33.4233 10.5415 33.4233 10.9407C33.4233 11.2561 33.1673 11.511 32.8511 11.511ZM63.1803 72.993H12.8224C12.5061 72.993 12.25 72.7379 12.25 72.4227V22.2457C12.25 22.1708 12.2647 22.0967 12.2935 22.0275C12.3222 21.9583 12.3644 21.8954 12.4176 21.8424C12.4707 21.7895 12.5338 21.7475 12.6033 21.7188C12.6728 21.6902 12.7472 21.6755 12.8224 21.6756H63.1803C63.2555 21.6755 63.3299 21.6902 63.3994 21.7189C63.4688 21.7475 63.5319 21.7895 63.585 21.8425C63.6382 21.8954 63.6803 21.9583 63.7091 22.0275C63.7378 22.0967 63.7526 22.1708 63.7526 22.2457V72.4228C63.7526 72.4977 63.7378 72.5719 63.7091 72.6411C63.6803 72.7103 63.6382 72.7731 63.585 72.8261C63.5319 72.879 63.4688 72.921 63.3994 72.9497C63.3299 72.9783 63.2555 72.993 63.1803 72.993ZM13.3946 71.8525H62.6081V22.8159H13.3946V71.8525Z" fill="#184383"/>
<path d="M58.6005 68.4306H17.3985C17.0822 68.4306 16.8262 68.1757 16.8262 67.8605V26.8065C16.8261 26.7316 16.8409 26.6574 16.8697 26.5882C16.8984 26.519 16.9406 26.4561 16.9937 26.4032C17.0469 26.3502 17.11 26.3082 17.1795 26.2796C17.2489 26.251 17.3234 26.2363 17.3985 26.2363H58.6005C58.9169 26.2363 59.1729 26.4914 59.1729 26.8065V67.8605C59.1729 67.9353 59.1581 68.0095 59.1294 68.0787C59.1006 68.1479 59.0584 68.2108 59.0053 68.2638C58.9521 68.3167 58.889 68.3587 58.8196 68.3873C58.7501 68.416 58.6757 68.4307 58.6005 68.4306ZM17.9708 67.2903H58.0283V27.3767H17.9708V67.2903Z" fill="#184383"/>
<path d="M17.4003 27.3762H12.8224C12.5061 27.3762 12.25 27.1212 12.25 26.8059C12.25 26.731 12.2647 26.6569 12.2935 26.5877C12.3222 26.5185 12.3644 26.4556 12.4176 26.4026C12.4707 26.3497 12.5338 26.3077 12.6033 26.279C12.6728 26.2504 12.7472 26.2357 12.8224 26.2358H17.4005C17.4756 26.2357 17.55 26.2504 17.6195 26.2791C17.6889 26.3077 17.752 26.3497 17.8052 26.4027C17.8583 26.4556 17.9005 26.5185 17.9292 26.5877C17.9579 26.6569 17.9727 26.731 17.9727 26.8059C17.9727 26.8808 17.9579 26.955 17.9292 27.0242C17.9004 27.0934 17.8583 27.1563 17.8051 27.2093C17.752 27.2622 17.6889 27.3043 17.6194 27.3329C17.5499 27.3616 17.4755 27.3763 17.4003 27.3762ZM63.1803 27.3762H58.6023C58.5271 27.3763 58.4527 27.3615 58.3832 27.3329C58.3138 27.3042 58.2507 27.2622 58.1976 27.2092C58.1445 27.1563 58.1023 27.0934 58.0736 27.0242C58.0449 26.955 58.0301 26.8808 58.0302 26.8059C58.0301 26.731 58.0449 26.6569 58.0736 26.5877C58.1023 26.5185 58.1445 26.4556 58.1976 26.4027C58.2507 26.3497 58.3138 26.3077 58.3832 26.2791C58.4527 26.2504 58.5271 26.2357 58.6023 26.2358H63.1803C63.2555 26.2357 63.3299 26.2504 63.3994 26.2791C63.4688 26.3077 63.5319 26.3497 63.585 26.4027C63.6382 26.4556 63.6803 26.5185 63.7091 26.5877C63.7378 26.6569 63.7526 26.731 63.7526 26.8059C63.7526 27.1213 63.4966 27.3762 63.1803 27.3762ZM63.1803 68.4302H58.6023C58.5271 68.4302 58.4527 68.4155 58.3832 68.3869C58.3138 68.3582 58.2507 68.3162 58.1976 68.2633C58.1445 68.2103 58.1023 68.1474 58.0736 68.0782C58.0449 68.0091 58.0301 67.9349 58.0302 67.86C58.0301 67.7851 58.0449 67.711 58.0736 67.6418C58.1023 67.5726 58.1445 67.5097 58.1976 67.4568C58.2507 67.4038 58.3138 67.3618 58.3832 67.3332C58.4527 67.3045 58.5271 67.2898 58.6023 67.2898H63.1803C63.2555 67.2898 63.3299 67.3045 63.3994 67.3332C63.4688 67.3618 63.5319 67.4038 63.585 67.4568C63.6382 67.5097 63.6803 67.5726 63.7091 67.6418C63.7378 67.711 63.7526 67.7851 63.7526 67.86C63.7526 67.9349 63.7378 68.0091 63.7091 68.0783C63.6803 68.1474 63.6382 68.2103 63.585 68.2633C63.5319 68.3162 63.4688 68.3582 63.3994 68.3869C63.3299 68.4155 63.2555 68.4302 63.1803 68.4302ZM17.4003 68.4302H12.8224C12.5061 68.4302 12.25 68.1753 12.25 67.86C12.25 67.7851 12.2647 67.7109 12.2935 67.6417C12.3222 67.5725 12.3644 67.5097 12.4176 67.4567C12.4707 67.4038 12.5338 67.3618 12.6033 67.3331C12.6728 67.3045 12.7472 67.2898 12.8224 67.2898H17.4005C17.4756 67.2898 17.55 67.3045 17.6195 67.3332C17.6889 67.3618 17.752 67.4038 17.8052 67.4568C17.8583 67.5097 17.9005 67.5726 17.9292 67.6418C17.9579 67.711 17.9727 67.7851 17.9727 67.86C17.9727 67.9349 17.9579 68.0091 17.9291 68.0783C17.9004 68.1475 17.8582 68.2103 17.8051 68.2633C17.7519 68.3162 17.6888 68.3582 17.6194 68.3869C17.5499 68.4155 17.4755 68.4302 17.4003 68.4302ZM21.9783 58.1668C21.9031 58.1669 21.8287 58.1522 21.7592 58.1235C21.6897 58.0949 21.6266 58.0528 21.5735 57.9999C21.5204 57.9469 21.4782 57.884 21.4495 57.8148C21.4207 57.7456 21.406 57.6714 21.406 57.5965V29.1582C21.406 28.8429 21.662 28.588 21.9783 28.588C22.2945 28.588 22.5505 28.8429 22.5505 29.1582V57.5965C22.5505 57.9118 22.2946 58.1668 21.9783 58.1668ZM26.5563 53.6052C26.4812 53.6052 26.4068 53.5905 26.3373 53.5619C26.2679 53.5332 26.2048 53.4912 26.1516 53.4383C26.0985 53.3853 26.0563 53.3225 26.0276 53.2533C25.9989 53.1841 25.9841 53.1099 25.9841 53.035V29.1582C25.9841 29.0833 25.9989 29.0091 26.0276 28.9399C26.0563 28.8707 26.0985 28.8079 26.1516 28.7549C26.2048 28.702 26.2679 28.66 26.3373 28.6313C26.4068 28.6027 26.4812 28.588 26.5563 28.588C26.6315 28.588 26.7059 28.6027 26.7754 28.6313C26.8448 28.6599 26.9079 28.7019 26.9611 28.7549C27.0142 28.8078 27.0564 28.8707 27.0851 28.9399C27.1139 29.0091 27.1286 29.0833 27.1286 29.1582V53.035C27.1286 53.1099 27.1139 53.1841 27.0851 53.2533C27.0564 53.3225 27.0142 53.3854 26.9611 53.4383C26.9079 53.4913 26.8448 53.5333 26.7754 53.5619C26.7059 53.5905 26.6315 53.6053 26.5563 53.6052ZM31.1343 49.0436C31.0591 49.0436 30.9847 49.0289 30.9153 49.0002C30.8458 48.9716 30.7827 48.9296 30.7296 48.8766C30.6764 48.8237 30.6343 48.7608 30.6055 48.6916C30.5768 48.6224 30.562 48.5483 30.5621 48.4734V29.1582C30.562 29.0833 30.5768 29.0091 30.6055 28.9399C30.6343 28.8707 30.6764 28.8079 30.7296 28.7549C30.7827 28.702 30.8458 28.66 30.9153 28.6313C30.9847 28.6027 31.0591 28.588 31.1343 28.588C31.4507 28.588 31.7067 28.8429 31.7067 29.1582V48.4735C31.7067 48.5484 31.6919 48.6226 31.6631 48.6918C31.6344 48.7609 31.5922 48.8238 31.539 48.8767C31.4859 48.9297 31.4228 48.9717 31.3533 49.0003C31.2839 49.0289 31.2094 49.0436 31.1343 49.0436ZM35.7122 44.4821C35.6371 44.4821 35.5627 44.4674 35.4932 44.4387C35.4238 44.4101 35.3607 44.3681 35.3075 44.3151C35.2544 44.2622 35.2122 44.1993 35.1835 44.1301C35.1548 44.0609 35.14 43.9868 35.14 43.9119V29.1582C35.14 28.8429 35.396 28.588 35.7122 28.588C36.0285 28.588 36.2846 28.8429 36.2846 29.1582V43.912C36.2846 43.9869 36.2698 44.0611 36.2411 44.1303C36.2123 44.1994 36.1701 44.2623 36.117 44.3152C36.0638 44.3682 36.0007 44.4102 35.9313 44.4388C35.8618 44.4674 35.7874 44.4821 35.7122 44.4821ZM40.2903 66.1495C39.974 66.1495 39.718 65.8944 39.718 65.5792V50.7542C39.7179 50.6793 39.7327 50.6051 39.7615 50.5359C39.7902 50.4667 39.8324 50.4039 39.8855 50.3509C39.9387 50.2979 40.0018 50.2559 40.0713 50.2273C40.1407 50.1987 40.2152 50.184 40.2903 50.184C40.3655 50.184 40.4399 50.1987 40.5093 50.2274C40.5788 50.256 40.6419 50.298 40.695 50.351C40.7482 50.4039 40.7903 50.4668 40.8191 50.536C40.8478 50.6052 40.8626 50.6793 40.8626 50.7542V65.5792C40.8626 65.8944 40.6066 66.1495 40.2903 66.1495ZM44.8683 35.3589C44.7931 35.3589 44.7187 35.3442 44.6493 35.3156C44.5798 35.2869 44.5167 35.2449 44.4636 35.192C44.4104 35.139 44.3683 35.0762 44.3395 35.007C44.3108 34.9378 44.296 34.8636 44.296 34.7887V29.158C44.296 28.8428 44.552 28.5879 44.8683 28.5879C45.1845 28.5879 45.4405 28.8428 45.4405 29.158V34.7887C45.4405 34.8636 45.4258 34.9378 45.397 35.007C45.3683 35.0762 45.3261 35.139 45.273 35.192C45.2198 35.2449 45.1567 35.2869 45.0873 35.3156C45.0179 35.3442 44.9434 35.3589 44.8683 35.3589ZM26.5563 66.1495C26.4812 66.1495 26.4067 66.1348 26.3373 66.1062C26.2678 66.0775 26.2047 66.0355 26.1516 65.9825C26.0984 65.9296 26.0563 65.8667 26.0276 65.7975C25.9988 65.7283 25.9841 65.6541 25.9841 65.5792V64.4389C25.9841 64.364 25.9989 64.2898 26.0276 64.2206C26.0563 64.1514 26.0985 64.0886 26.1516 64.0356C26.2048 63.9826 26.2679 63.9407 26.3373 63.912C26.4068 63.8834 26.4812 63.8686 26.5563 63.8687C26.6315 63.8686 26.7059 63.8834 26.7754 63.912C26.8448 63.9407 26.9079 63.9826 26.9611 64.0356C27.0142 64.0886 27.0563 64.1514 27.0851 64.2206C27.1138 64.2898 27.1286 64.364 27.1286 64.4389V65.5792C27.1286 65.8944 26.8727 66.1495 26.5563 66.1495ZM31.1343 66.1495C31.0591 66.1495 30.9847 66.1348 30.9152 66.1062C30.8458 66.0775 30.7827 66.0355 30.7295 65.9825C30.6764 65.9296 30.6342 65.8667 30.6055 65.7975C30.5768 65.7283 30.562 65.6541 30.5621 65.5792V59.8773C30.562 59.8025 30.5768 59.7283 30.6055 59.6591C30.6343 59.5899 30.6764 59.5271 30.7296 59.4741C30.7827 59.4211 30.8458 59.3791 30.9153 59.3505C30.9847 59.3219 31.0591 59.3071 31.1343 59.3072C31.4507 59.3072 31.7067 59.5623 31.7067 59.8773V65.5792C31.7067 65.6541 31.6919 65.7283 31.6632 65.7975C31.6344 65.8667 31.5923 65.9296 31.5391 65.9825C31.4859 66.0355 31.4228 66.0775 31.3534 66.1062C31.2839 66.1348 31.2095 66.1495 31.1343 66.1495ZM35.7122 66.1495C35.6371 66.1495 35.5626 66.1348 35.4932 66.1062C35.4237 66.0775 35.3606 66.0355 35.3075 65.9825C35.2543 65.9296 35.2122 65.8667 35.1835 65.7975C35.1547 65.7283 35.14 65.6541 35.14 65.5792V55.3158C35.14 55.0006 35.396 54.7457 35.7122 54.7457C36.0285 54.7457 36.2846 55.0006 36.2846 55.3158V65.5792C36.2846 65.8944 36.0286 66.1495 35.7122 66.1495ZM40.2903 39.9205C39.974 39.9205 39.718 39.6655 39.718 39.3504V29.1582C39.7179 29.0833 39.7327 29.0091 39.7615 28.9399C39.7902 28.8707 39.8324 28.8078 39.8855 28.7549C39.9387 28.7019 40.0018 28.6599 40.0713 28.6313C40.1407 28.6027 40.2152 28.588 40.2903 28.588C40.3655 28.588 40.4399 28.6027 40.5093 28.6313C40.5788 28.66 40.6419 28.702 40.695 28.7549C40.7482 28.8079 40.7903 28.8707 40.8191 28.9399C40.8478 29.0091 40.8626 29.0833 40.8626 29.1582V39.3504C40.8626 39.4253 40.8478 39.4994 40.8191 39.5686C40.7903 39.6378 40.7482 39.7007 40.695 39.7536C40.6419 39.8066 40.5788 39.8486 40.5093 39.8772C40.4399 39.9059 40.3655 39.9206 40.2903 39.9205ZM44.8683 66.1495C44.7931 66.1495 44.7187 66.1348 44.6492 66.1062C44.5798 66.0775 44.5167 66.0355 44.4635 65.9825C44.4104 65.9296 44.3682 65.8667 44.3395 65.7975C44.3108 65.7283 44.296 65.6541 44.296 65.5792V46.1927C44.296 45.8775 44.552 45.6224 44.8683 45.6224C45.1845 45.6224 45.4405 45.8775 45.4405 46.1927V65.5792C45.4405 65.8944 45.1845 66.1495 44.8683 66.1495ZM49.4462 30.7974C49.3711 30.7974 49.2966 30.7827 49.2272 30.7541C49.1577 30.7254 49.0946 30.6834 49.0415 30.6304C48.9883 30.5775 48.9462 30.5146 48.9174 30.4454C48.8887 30.3762 48.8739 30.302 48.874 30.2271V29.158C48.874 29.0832 48.8887 29.009 48.9175 28.9398C48.9462 28.8706 48.9884 28.8077 49.0415 28.7548C49.0947 28.7018 49.1577 28.6598 49.2272 28.6312C49.2966 28.6026 49.3711 28.5878 49.4462 28.5879C49.5214 28.5878 49.5958 28.6025 49.6653 28.6312C49.7347 28.6598 49.7978 28.7018 49.851 28.7547C49.9041 28.8077 49.9463 28.8706 49.975 28.9398C50.0037 29.009 50.0185 29.0831 50.0184 29.158V30.2271C50.0184 30.5425 49.7626 30.7974 49.4462 30.7974ZM49.4462 66.1495C49.3711 66.1495 49.2966 66.1348 49.2272 66.1062C49.1577 66.0775 49.0946 66.0355 49.0415 65.9825C48.9883 65.9296 48.9462 65.8667 48.9174 65.7975C48.8887 65.7283 48.8739 65.6541 48.874 65.5792V41.7023C48.874 41.6275 48.8887 41.5533 48.9175 41.4841C48.9462 41.4149 48.9884 41.352 49.0415 41.2991C49.0947 41.2461 49.1577 41.2041 49.2272 41.1755C49.2966 41.1469 49.3711 41.1321 49.4462 41.1322C49.5214 41.1321 49.5958 41.1468 49.6653 41.1755C49.7347 41.2041 49.7978 41.2461 49.851 41.299C49.9041 41.352 49.9463 41.4149 49.975 41.4841C50.0037 41.5533 50.0185 41.6275 50.0184 41.7023V65.5792C50.0184 65.8944 49.7626 66.1495 49.4462 66.1495ZM54.0245 66.1495C53.7081 66.1495 53.4521 65.8944 53.4521 65.5792V37.1408C53.452 37.0659 53.4668 36.9918 53.4956 36.9226C53.5243 36.8534 53.5665 36.7905 53.6197 36.7375C53.6728 36.6846 53.7359 36.6426 53.8054 36.614C53.8748 36.5853 53.9493 36.5706 54.0245 36.5707C54.0996 36.5706 54.174 36.5854 54.2435 36.614C54.3129 36.6426 54.376 36.6846 54.4291 36.7376C54.4822 36.7906 54.5244 36.8534 54.5531 36.9226C54.5818 36.9918 54.5966 37.066 54.5965 37.1408V65.5792C54.5965 65.8944 54.3407 66.1495 54.0245 66.1495ZM15.1459 25.0956C14.8297 25.0956 14.5681 24.8405 14.5681 24.5254C14.5681 24.2102 14.8185 23.9551 15.1336 23.9551H15.1459C15.2977 23.9552 15.4432 24.0153 15.5504 24.1223C15.6577 24.2292 15.718 24.3742 15.7181 24.5254C15.718 24.6766 15.6577 24.8215 15.5504 24.9284C15.4431 25.0353 15.2976 25.0954 15.1459 25.0956ZM15.1459 29.6571C14.8297 29.6571 14.5681 29.402 14.5681 29.0869C14.5681 28.7718 14.8185 28.5167 15.1336 28.5167H15.1459C15.4611 28.5167 15.7181 28.7718 15.7181 29.0869C15.7181 29.402 15.4611 29.6571 15.1459 29.6571ZM60.9259 29.6571C60.6097 29.6571 60.3481 29.402 60.3481 29.0869C60.3481 28.7718 60.5985 28.5167 60.9136 28.5167H60.9259C61.2412 28.5167 61.4982 28.7718 61.4982 29.0869C61.4982 29.402 61.2412 29.6571 60.9259 29.6571ZM60.9259 66.1495C60.6097 66.1495 60.3481 65.8944 60.3481 65.5792C60.3481 65.2641 60.5985 65.0092 60.9136 65.0092H60.9259C61.0777 65.0092 61.2232 65.0693 61.3305 65.1762C61.4378 65.283 61.4981 65.428 61.4982 65.5792C61.4982 65.8944 61.2412 66.1495 60.9259 66.1495ZM60.9259 70.711C60.6097 70.711 60.3481 70.4559 60.3481 70.1408C60.3481 69.8256 60.5985 69.5707 60.9136 69.5707H60.9259C61.0777 69.5707 61.2232 69.6308 61.3305 69.7378C61.4378 69.8447 61.4981 69.9896 61.4982 70.1408C61.498 70.292 61.4377 70.437 61.3304 70.5439C61.2231 70.6508 61.0777 70.7109 60.9259 70.711ZM15.1459 70.711C14.8297 70.711 14.5681 70.4559 14.5681 70.1408C14.5681 69.8256 14.8185 69.5707 15.1336 69.5707H15.1459C15.2976 69.5707 15.4431 69.6308 15.5504 69.7378C15.6577 69.8447 15.718 69.9896 15.7181 70.1408C15.718 70.292 15.6577 70.437 15.5504 70.5439C15.4431 70.6508 15.2976 70.7109 15.1459 70.711ZM15.1459 66.1495C14.8297 66.1495 14.5681 65.8944 14.5681 65.5792C14.5681 65.2641 14.8185 65.0092 15.1336 65.0092H15.1459C15.2976 65.0092 15.4431 65.0693 15.5504 65.1762C15.6577 65.283 15.718 65.428 15.7181 65.5792C15.7181 65.8944 15.4611 66.1495 15.1459 66.1495ZM20.8684 65.0092C20.5522 65.0092 20.2906 64.7541 20.2906 64.4389C20.2906 64.1238 20.541 63.8687 20.8561 63.8687H20.8684C21.1837 63.8687 21.4408 64.1238 21.4408 64.4389C21.4408 64.7541 21.1837 65.0092 20.8684 65.0092ZM60.9259 25.0956C60.6097 25.0956 60.3481 24.8405 60.3481 24.5254C60.3481 24.2102 60.5985 23.9551 60.9136 23.9551H60.9259C61.0777 23.9552 61.2232 24.0153 61.3305 24.1223C61.4378 24.2292 61.4981 24.3742 61.4982 24.5254C61.498 24.6766 61.4377 24.8215 61.3304 24.9284C61.2231 25.0353 61.0777 25.0954 60.9259 25.0956ZM55.2035 30.7974C54.8872 30.7974 54.6256 30.5423 54.6256 30.2271C54.6256 29.912 54.876 29.6569 55.1912 29.6569H55.2035C55.3553 29.657 55.5007 29.7171 55.608 29.824C55.7153 29.9309 55.7756 30.0759 55.7758 30.2271C55.7758 30.5425 55.5186 30.7974 55.2035 30.7974ZM21.9783 67.2898C21.865 67.29 21.7543 67.2566 21.6602 67.194C21.566 67.1314 21.4926 67.0423 21.4492 66.9381C21.4059 66.8339 21.3946 66.7192 21.4167 66.6085C21.4389 66.4979 21.4935 66.3963 21.5736 66.3166L57.0533 30.9645C57.1606 30.8576 57.3061 30.7975 57.4579 30.7975C57.6096 30.7975 57.7552 30.8576 57.8625 30.9645C57.9698 31.0714 58.0301 31.2164 58.0301 31.3676C58.0301 31.5189 57.9698 31.6639 57.8625 31.7708L22.3829 67.1227C22.3298 67.1758 22.2668 67.2179 22.1973 67.2465C22.1279 67.2752 22.0534 67.2899 21.9783 67.2898ZM18.5448 63.8687C18.4316 63.8686 18.321 63.8352 18.2269 63.7725C18.1329 63.7098 18.0595 63.6208 18.0162 63.5166C17.9729 63.4125 17.9616 63.2978 17.9836 63.1873C18.0057 63.0767 18.0601 62.9751 18.1401 62.8953L53.6196 27.5433C53.6728 27.4904 53.7359 27.4484 53.8053 27.4198C53.8747 27.3911 53.9491 27.3764 54.0242 27.3764C54.0994 27.3764 54.1738 27.3911 54.2432 27.4198C54.3126 27.4484 54.3757 27.4904 54.4288 27.5433C54.482 27.5963 54.5241 27.6591 54.5529 27.7283C54.5816 27.7975 54.5964 27.8716 54.5964 27.9465C54.5964 28.0214 54.5816 28.0955 54.5529 28.1647C54.5241 28.2338 54.482 28.2967 54.4288 28.3496L18.9494 63.7017C18.8963 63.7547 18.8332 63.7968 18.7638 63.8254C18.6944 63.8541 18.6199 63.8688 18.5448 63.8687Z" fill="#184383"/>
<path d="M18.5431 21.6754C18.4679 21.6754 18.3935 21.6607 18.324 21.632C18.2546 21.6034 18.1915 21.5614 18.1383 21.5084C18.0852 21.4555 18.0431 21.3926 18.0143 21.3234C17.9856 21.2542 17.9708 21.1801 17.9708 21.1052C17.9706 20.954 17.9103 20.8091 17.803 20.7022C17.6957 20.5953 17.5503 20.5352 17.3986 20.535C17.0834 20.535 16.8262 20.7905 16.8262 21.1052C16.8262 21.4203 16.5702 21.6754 16.254 21.6754C15.9378 21.6754 15.6816 21.4203 15.6816 21.1052C15.6816 20.1619 16.4518 19.3945 17.3985 19.3945C18.345 19.3945 19.1151 20.1619 19.1151 21.1052C19.1152 21.1801 19.1005 21.2542 19.0717 21.3234C19.043 21.3926 19.0009 21.4555 18.9478 21.5085C18.8946 21.5614 18.8315 21.6034 18.7621 21.6321C18.6926 21.6607 18.6182 21.6754 18.5431 21.6754Z" fill="#184383"/>
<path d="M59.7441 21.6754C59.6689 21.6754 59.5945 21.6607 59.5251 21.632C59.4556 21.6034 59.3925 21.5614 59.3394 21.5084C59.2862 21.4555 59.2441 21.3926 59.2153 21.3234C59.1866 21.2542 59.1718 21.1801 59.1719 21.1052C59.1717 20.954 59.1113 20.8091 59.004 20.7022C58.8967 20.5953 58.7512 20.5352 58.5995 20.535C58.4478 20.5352 58.3024 20.5953 58.1951 20.7022C58.0879 20.8091 58.0276 20.954 58.0274 21.1052C58.0274 21.1801 58.0127 21.2543 57.9839 21.3235C57.9552 21.3927 57.913 21.4555 57.8598 21.5085C57.8067 21.5614 57.7436 21.6034 57.6741 21.6321C57.6046 21.6607 57.5302 21.6754 57.455 21.6754C57.3799 21.6754 57.3055 21.6607 57.236 21.632C57.1666 21.6034 57.1035 21.5614 57.0503 21.5084C56.9972 21.4555 56.955 21.3926 56.9263 21.3234C56.8975 21.2542 56.8828 21.1801 56.8828 21.1052C56.8828 20.1619 57.6529 19.3945 58.5995 19.3945C59.5462 19.3945 60.3163 20.1619 60.3163 21.1052C60.3163 21.1801 60.3016 21.2542 60.2728 21.3234C60.2441 21.3926 60.2019 21.4555 60.1488 21.5084C60.0956 21.5614 60.0326 21.6034 59.9631 21.632C59.8937 21.6607 59.8192 21.6754 59.7441 21.6754Z" fill="#184383"/>
<path d="M18.5425 19.3944C18.4292 19.3944 18.3184 19.3609 18.2243 19.298C18.1302 19.2351 18.057 19.1458 18.0139 19.0414C17.9561 18.9016 17.9563 18.7446 18.0146 18.605C18.0728 18.4654 18.1843 18.3545 18.3246 18.2968L37.7811 10.3142C38.0739 10.1972 38.408 10.3343 38.5276 10.6243C38.5563 10.6935 38.571 10.7676 38.5709 10.8425C38.5708 10.9173 38.5559 10.9915 38.527 11.0606C38.4982 11.1297 38.4559 11.1925 38.4027 11.2454C38.3495 11.2982 38.2864 11.3401 38.217 11.3687L18.7604 19.3515C18.6913 19.3798 18.6173 19.3943 18.5425 19.3944Z" fill="#184383"/>
<path d="M57.4564 19.3944C57.3816 19.3943 57.3076 19.3798 57.2385 19.3516L44.6445 14.1842C44.5044 14.1264 44.393 14.0156 44.3348 13.8761C44.2766 13.7365 44.2764 13.5797 44.3342 13.44C44.3919 13.3003 44.5029 13.1891 44.6429 13.1309C44.7828 13.0727 44.9402 13.0722 45.0805 13.1295L57.6745 18.2969C57.7969 18.3472 57.8981 18.4383 57.9607 18.5546C58.0233 18.671 58.0435 18.8054 58.0178 18.9349C57.992 19.0644 57.922 19.181 57.8196 19.2648C57.7173 19.3486 57.5889 19.3944 57.4564 19.3944Z" fill="#184383"/>
</svg>
