<svg width="71" height="71" viewBox="0 0 71 71" fill="none" xmlns="http://www.w3.org/2000/svg">
<path d="M42.7065 67.0946H28.2949C28.2221 67.0947 28.15 67.0803 28.0828 67.0524C28.0156 67.0245 27.9545 66.9836 27.903 66.9321L25.6858 64.715C25.6343 64.6636 25.5935 64.6025 25.5656 64.5352C25.5378 64.468 25.5234 64.3959 25.5234 64.3231V56.5631C25.5233 56.4902 25.5376 56.4181 25.5654 56.3508C25.5932 56.2835 25.634 56.2223 25.6855 56.1708C25.737 56.1194 25.7981 56.0785 25.8654 56.0507C25.9328 56.0229 26.0049 56.0087 26.0777 56.0088H44.9236C44.9965 56.0086 45.0686 56.0229 45.1359 56.0507C45.2032 56.0785 45.2644 56.1193 45.3159 56.1708C45.3674 56.2223 45.4082 56.2835 45.436 56.3508C45.4638 56.4181 45.478 56.4902 45.4779 56.5631V64.3231C45.4779 64.3959 45.4636 64.468 45.4357 64.5352C45.4078 64.6025 45.367 64.6636 45.3155 64.715L43.0984 66.9321C43.047 66.9836 42.9859 67.0245 42.9187 67.0524C42.8514 67.0803 42.7793 67.0946 42.7065 67.0946ZM28.5244 65.986H42.477L44.3694 64.0936V57.1173H26.632V64.0936L28.5244 65.986Z" fill="#184383"/>
<path d="M24.9679 60.4427C24.8235 60.4423 24.685 60.3856 24.5818 60.2847C24.4786 60.1838 24.4187 60.0467 24.415 59.9024C24.4113 59.7581 24.4639 59.618 24.5618 59.5119C24.6597 59.4058 24.7951 59.342 24.9392 59.3342L46.0023 58.2256C46.3045 58.1995 46.5685 58.4443 46.5859 58.7497C46.601 59.0549 46.3673 59.3168 46.0609 59.3319L24.9977 60.4405C24.9879 60.4427 24.9776 60.4427 24.9679 60.4427ZM24.9679 63.7686C24.8235 63.7682 24.685 63.7115 24.5818 63.6106C24.4786 63.5097 24.4187 63.3726 24.415 63.2283C24.4113 63.084 24.4639 62.9439 24.5618 62.8378C24.6597 62.7317 24.7951 62.668 24.9392 62.6601L46.0023 61.5515C46.3045 61.5277 46.5685 61.7702 46.5859 62.0754C46.601 62.3806 46.3673 62.6427 46.0609 62.6578L24.9977 63.7664C24.9879 63.7686 24.9776 63.7686 24.9679 63.7686ZM44.9229 57.1171H26.077C25.93 57.117 25.7891 57.0585 25.6852 56.9546C25.5813 56.8507 25.5228 56.7098 25.5227 56.5628V53.1265C19.9631 49.6512 16.6541 43.7057 16.6541 37.1625C16.6541 26.7701 25.1081 18.316 35.5 18.316C45.8918 18.316 54.3458 26.77 54.3458 37.1625C54.3458 43.7079 51.0364 49.6535 45.4772 53.1265V56.5627C45.4771 56.7097 45.4187 56.8506 45.3148 56.9546C45.2108 57.0585 45.0699 57.117 44.9229 57.1171ZM26.6313 56.0085H44.3686V52.817C44.3686 52.6242 44.4704 52.4424 44.6371 52.3427C50.022 49.0949 53.2374 43.4199 53.2374 37.1625C53.2374 27.3818 45.2803 19.4247 35.5002 19.4247C25.7199 19.4247 17.7628 27.3818 17.7628 37.1625C17.7628 43.4199 20.9782 49.0949 26.3635 52.3427C26.4451 52.3921 26.5127 52.4617 26.5596 52.5447C26.6065 52.6278 26.6313 52.7216 26.6314 52.817V56.0085H26.6313ZM35.5 69.3115C31.3254 69.3115 30.0668 66.8907 30.0155 66.7868C29.983 66.7218 29.9636 66.651 29.9584 66.5784C29.9533 66.5059 29.9625 66.4331 29.9855 66.3641C30.0085 66.2951 30.0449 66.2313 30.0926 66.1765C30.1403 66.1216 30.1984 66.0766 30.2635 66.0442C30.3941 65.9786 30.5453 65.9672 30.6843 66.0127C30.8232 66.0581 30.9385 66.1566 31.0051 66.2867C31.0489 66.3711 32.0547 68.2029 35.5002 68.2029C38.9503 68.2029 39.9539 66.3645 39.9951 66.2867C40.0635 66.1576 40.1797 66.0603 40.3189 66.0158C40.4581 65.9713 40.6092 65.983 40.7399 66.0485C41.0106 66.187 41.1209 66.5161 40.9846 66.7868C40.9325 66.8907 39.6746 69.3115 35.5 69.3115ZM11.6676 37.7167H0.579663C0.432684 37.7167 0.291745 37.6582 0.187815 37.5543C0.0838851 37.4504 0.0254652 37.3094 0.0253917 37.1625C0.0252457 37.0896 0.0394787 37.0174 0.0672749 36.9501C0.0950711 36.8827 0.135884 36.8216 0.187375 36.77C0.238865 36.7185 0.300021 36.6776 0.367338 36.6497C0.434655 36.6219 0.506808 36.6076 0.579663 36.6076H11.6676C11.7405 36.6076 11.8126 36.6219 11.8799 36.6497C11.9473 36.6776 12.0084 36.7185 12.0599 36.77C12.1114 36.8215 12.1523 36.8827 12.1801 36.9501C12.2079 37.0174 12.2221 37.0896 12.222 37.1625C12.2219 37.3095 12.1634 37.4504 12.0595 37.5543C11.9555 37.6582 11.8146 37.7167 11.6676 37.7167ZM59.3345 37.7167C59.2617 37.7168 59.1896 37.7025 59.1223 37.6747C59.0551 37.6468 58.9939 37.606 58.9425 37.5545C58.891 37.503 58.8502 37.4419 58.8223 37.3746C58.7945 37.3074 58.7802 37.2353 58.7803 37.1625C58.7804 37.0155 58.8388 36.8746 58.9427 36.7707C59.0466 36.6667 59.1876 36.6083 59.3345 36.6082L70.4204 36.6076C70.5674 36.6076 70.7085 36.6661 70.8125 36.7701C70.9165 36.8741 70.9749 37.0151 70.9749 37.1622C70.9749 37.3093 70.9165 37.4503 70.8125 37.5543C70.7085 37.6583 70.5674 37.7167 70.4204 37.7167H59.3345ZM5.25915 55.1769C5.13705 55.1769 5.01836 55.1367 4.92147 55.0624C4.82458 54.9881 4.75491 54.8839 4.72327 54.766C4.69162 54.6481 4.69976 54.523 4.74643 54.4102C4.7931 54.2974 4.87568 54.2031 4.98139 54.142L14.5841 48.599C14.8478 48.4454 15.1882 48.5362 15.3414 48.8026C15.3778 48.8655 15.4015 48.935 15.411 49.007C15.4205 49.0791 15.4157 49.1523 15.3968 49.2225C15.378 49.2928 15.3454 49.3585 15.3011 49.4161C15.2567 49.4737 15.2015 49.522 15.1384 49.5582L5.5358 55.1013C5.45211 55.1511 5.3565 55.1772 5.25915 55.1769ZM56.143 25.8001C56.0456 25.7999 55.95 25.7742 55.8657 25.7256C55.7813 25.6769 55.7112 25.6071 55.6622 25.5229C55.5889 25.3956 55.5691 25.2443 55.6073 25.1024C55.6455 24.9605 55.7384 24.8395 55.8658 24.7662L65.4642 19.2233C65.7283 19.0673 66.0683 19.1594 66.2221 19.4258C66.2954 19.5531 66.3151 19.7044 66.277 19.8463C66.2388 19.9882 66.1458 20.1091 66.0185 20.1825L56.4201 25.7254C56.3361 25.7747 56.2404 25.8005 56.143 25.8001ZM47.4194 17.0754C47.322 17.0758 47.2263 17.05 47.1422 17.0007C47.0149 16.9273 46.9219 16.8064 46.8838 16.6645C46.8456 16.5226 46.8653 16.3713 46.9386 16.2439L52.4794 6.64453C52.6331 6.37925 52.9709 6.2862 53.2373 6.44206C53.3646 6.51542 53.4576 6.63636 53.4958 6.77827C53.5339 6.92019 53.5142 7.07145 53.4408 7.1988L47.9001 16.7982C47.8511 16.8824 47.781 16.9522 47.6967 17.0009C47.6124 17.0495 47.5168 17.0752 47.4194 17.0754ZM35.5032 13.8807C35.3562 13.8807 35.2152 13.8223 35.1112 13.7184C35.0073 13.6144 34.9488 13.4734 34.9488 13.3264L34.9477 2.24266C34.95 2.09716 35.0094 1.9584 35.1131 1.85632C35.2168 1.75424 35.3565 1.69702 35.502 1.69702C35.6475 1.69702 35.7872 1.75424 35.8909 1.85632C35.9946 1.9584 36.0541 2.09716 36.0564 2.24266L36.0575 13.3264C36.0575 13.3992 36.0432 13.4713 36.0154 13.5386C35.9876 13.6059 35.9467 13.667 35.8953 13.7185C35.8438 13.77 35.7826 13.8108 35.7154 13.8386C35.6481 13.8665 35.576 13.8808 35.5032 13.8807ZM23.5864 17.0732C23.489 17.0733 23.3933 17.0477 23.309 16.999C23.2246 16.9504 23.1545 16.8803 23.1058 16.796L17.5628 7.19769C17.5264 7.13468 17.5028 7.06512 17.4933 6.99297C17.4837 6.92083 17.4886 6.84751 17.5074 6.77723C17.5263 6.70694 17.5588 6.64107 17.6031 6.58337C17.6475 6.52566 17.7028 6.47727 17.7658 6.44096C18.0294 6.2862 18.3689 6.37814 18.5231 6.64342L24.0661 16.2417C24.1025 16.3047 24.1262 16.3743 24.1357 16.4464C24.1452 16.5186 24.1403 16.5919 24.1215 16.6622C24.1026 16.7325 24.0701 16.7983 24.0258 16.856C23.9814 16.9138 23.9261 16.9621 23.8631 16.9985C23.7792 17.0476 23.6837 17.0734 23.5864 17.0732ZM65.7435 55.1748C65.646 55.1753 65.5502 55.1491 65.4665 55.0991L55.8659 49.5561C55.8029 49.5199 55.7477 49.4716 55.7033 49.414C55.659 49.3564 55.6264 49.2907 55.6075 49.2205C55.5886 49.1503 55.5837 49.0771 55.5931 49.005C55.6025 48.933 55.6261 48.8635 55.6623 48.8005C55.6986 48.7373 55.7471 48.6818 55.8048 48.6374C55.8626 48.5929 55.9286 48.5603 55.999 48.5414C56.0694 48.5224 56.1429 48.5176 56.2151 48.5271C56.2874 48.5367 56.3571 48.5604 56.4202 48.5969L66.0207 54.1399C66.1481 54.2135 66.241 54.3347 66.2792 54.4767C66.3174 54.6188 66.2976 54.7702 66.2243 54.8978C66.1753 54.9819 66.1051 55.0517 66.0208 55.1003C65.9365 55.1489 65.8409 55.1746 65.7435 55.1748ZM14.8608 25.7958C14.7636 25.7959 14.6681 25.7701 14.5841 25.7211L4.98471 20.1803C4.92165 20.144 4.86637 20.0956 4.82203 20.0379C4.77769 19.9802 4.74516 19.9143 4.72631 19.844C4.70745 19.7737 4.70264 19.7004 4.71214 19.6283C4.72165 19.5561 4.74528 19.4866 4.7817 19.4236C4.93438 19.1583 5.27315 19.0652 5.53899 19.2211L15.1384 24.7619C15.2015 24.7982 15.2567 24.8466 15.3011 24.9043C15.3454 24.962 15.378 25.0279 15.3968 25.0981C15.4157 25.1684 15.4205 25.2417 15.411 25.3139C15.4015 25.386 15.3778 25.4556 15.3414 25.5186C15.2927 25.6029 15.2226 25.6729 15.1382 25.7215C15.0539 25.7702 14.9582 25.7958 14.8608 25.7958Z" fill="#184383"/>
<path d="M35.501 49.3572C35.4261 49.357 35.352 49.3417 35.2831 49.3124C35.2142 49.283 35.1519 49.2401 35.0998 49.1862L23.4597 36.9917C23.376 36.9037 23.3234 36.7907 23.31 36.67C23.2966 36.5493 23.3231 36.4275 23.3855 36.3233L26.7113 30.7803C26.7603 30.6981 26.8299 30.63 26.9132 30.5827C26.9965 30.5354 27.0907 30.5106 27.1865 30.5107H43.8153C43.9111 30.5107 44.0052 30.5355 44.0885 30.5828C44.1718 30.63 44.2415 30.6981 44.2906 30.7803L47.6163 36.3233C47.679 36.4275 47.7056 36.5494 47.6921 36.6702C47.6786 36.791 47.6257 36.904 47.5416 36.9917L35.9019 49.1862C35.8499 49.2401 35.7876 49.283 35.7188 49.3124C35.6499 49.3417 35.5759 49.357 35.501 49.3572ZM24.5537 36.531L35.501 47.9996L46.4482 36.531L43.5012 31.6194H27.5006L24.5537 36.531Z" fill="#FBD826"/>
<path d="M44.9236 37.1628H26.0777C25.9307 37.1627 25.7897 37.1041 25.6857 37.0001C25.5818 36.8961 25.5234 36.755 25.5234 36.608C25.5234 36.5352 25.5377 36.4631 25.5656 36.3958C25.5934 36.3286 25.6342 36.2674 25.6857 36.216C25.7372 36.1645 25.7983 36.1237 25.8656 36.0958C25.9328 36.068 26.0049 36.0537 26.0777 36.0537H44.9236C44.9964 36.0537 45.0685 36.068 45.1358 36.0958C45.2031 36.1236 45.2642 36.1645 45.3157 36.2159C45.3672 36.2674 45.408 36.3285 45.4358 36.3958C45.4637 36.4631 45.478 36.5352 45.4779 36.608C45.4779 36.755 45.4196 36.8961 45.3156 37.0001C45.2117 37.1042 45.0707 37.1627 44.9236 37.1628Z" fill="#FBD826"/>
<path d="M34.9463 47.1402C34.8432 47.1401 34.7421 47.1113 34.6544 47.057C34.5667 47.0027 34.4958 46.9251 34.4499 46.8327L30.0155 37.9641C29.983 37.8991 29.9636 37.8283 29.9584 37.7557C29.9533 37.6832 29.9625 37.6104 29.9855 37.5414C30.0085 37.4724 30.0449 37.4087 30.0926 37.3538C30.1403 37.2989 30.1984 37.2539 30.2635 37.2215C30.5375 37.083 30.8698 37.1954 31.0073 37.4684L35.4416 46.337C35.5074 46.4686 35.5182 46.621 35.4717 46.7607C35.4252 46.9003 35.3252 47.0158 35.1937 47.0818C35.1168 47.1199 35.0321 47.1398 34.9463 47.1402Z" fill="#FBD826"/>
<path d="M36.0546 47.1399C35.9711 47.1399 35.8868 47.1205 35.8072 47.0815C35.6757 47.0155 35.5757 46.9 35.5293 46.7604C35.4828 46.6207 35.4936 46.4684 35.5593 46.3367L39.9936 37.4681C40.0261 37.403 40.0712 37.3449 40.1262 37.2972C40.1812 37.2496 40.2451 37.2132 40.3142 37.1903C40.3833 37.1673 40.4562 37.1583 40.5288 37.1636C40.6014 37.1689 40.6723 37.1885 40.7373 37.2212C40.8023 37.2537 40.8603 37.2987 40.908 37.3536C40.9556 37.4085 40.992 37.4722 41.015 37.5412C41.0381 37.6101 41.0473 37.683 41.0422 37.7555C41.037 37.828 41.0177 37.8988 40.9852 37.9638L36.5508 46.8325C36.5049 46.9248 36.4341 47.0025 36.3465 47.0568C36.2588 47.1112 36.1577 47.1399 36.0546 47.1399ZM39.3808 36.0535C39.2485 36.0538 39.1206 36.0065 39.0202 35.9204L35.5009 32.9031L31.9813 35.9204C31.8696 36.0158 31.7246 36.0629 31.5781 36.0516C31.4317 36.0402 31.2957 35.9711 31.2001 35.8596C31.1527 35.8044 31.1166 35.7403 31.0939 35.6711C31.0712 35.6019 31.0624 35.5289 31.068 35.4563C31.0736 35.3837 31.0935 35.3129 31.1265 35.248C31.1595 35.183 31.2049 35.1253 31.2603 35.0779L35.1403 31.7523C35.2408 31.6664 35.3687 31.6191 35.5009 31.6191C35.6331 31.6191 35.761 31.6664 35.8614 31.7523L39.7413 35.0779C39.7967 35.1253 39.8422 35.183 39.8752 35.248C39.9082 35.3129 39.928 35.3838 39.9335 35.4564C39.9391 35.529 39.9302 35.602 39.9075 35.6712C39.8847 35.7404 39.8485 35.8044 39.801 35.8596C39.7492 35.9205 39.6848 35.9694 39.6123 36.0029C39.5397 36.0364 39.4607 36.0536 39.3808 36.0535Z" fill="#FBD826"/>
<path d="M30.5108 36.0534C30.438 36.0534 30.366 36.0391 30.2987 36.0113C30.2315 35.9834 30.1704 35.9425 30.119 35.891L26.7932 32.5652C26.6893 32.4613 26.6309 32.3203 26.6309 32.1734C26.6309 32.0264 26.6893 31.8854 26.7932 31.7815C26.8971 31.6775 27.0381 31.6191 27.1851 31.6191C27.3321 31.6191 27.473 31.6775 27.577 31.7815L30.9027 35.1072C30.9542 35.1587 30.9951 35.2198 31.023 35.287C31.0508 35.3542 31.0652 35.4263 31.0652 35.4991C31.0652 35.5719 31.0508 35.644 31.023 35.7112C30.9951 35.7785 30.9542 35.8396 30.9027 35.891C30.8513 35.9426 30.7903 35.9835 30.723 36.0114C30.6557 36.0392 30.5836 36.0535 30.5108 36.0534ZM40.4881 36.0534C40.3785 36.0534 40.2713 36.021 40.1801 35.9601C40.089 35.8992 40.0179 35.8126 39.9759 35.7113C39.934 35.61 39.923 35.4985 39.9444 35.391C39.9659 35.2835 40.0187 35.1847 40.0963 35.1072L43.422 31.7815C43.526 31.6775 43.6669 31.6191 43.8139 31.6191C43.9609 31.6191 44.1019 31.6775 44.2058 31.7815C44.3097 31.8854 44.3681 32.0264 44.3681 32.1734C44.3681 32.3203 44.3097 32.4613 44.2058 32.5652L40.88 35.891C40.8286 35.9426 40.7676 35.9835 40.7003 36.0114C40.6331 36.0392 40.5609 36.0535 40.4881 36.0534Z" fill="#FBD826"/>
<path d="M58.5191 31.5484C58.3973 31.5481 58.279 31.5078 58.1824 31.4337C58.0858 31.3595 58.0162 31.2557 57.9844 31.1381C57.9467 30.996 57.9667 30.8447 58.0401 30.7173C58.1135 30.5899 58.2344 30.4968 58.3763 30.4582L63.7916 29.0064C64.0871 28.9339 64.3912 29.1039 64.4693 29.3983C64.4883 29.4687 64.4933 29.5421 64.4839 29.6144C64.4745 29.6867 64.4509 29.7565 64.4145 29.8196C64.3781 29.8828 64.3295 29.9381 64.2717 29.9825C64.2139 30.0269 64.1478 30.0594 64.0774 30.0782L58.6643 31.53C58.6168 31.5419 58.5681 31.5481 58.5191 31.5484ZM7.06147 45.3359C6.93975 45.3359 6.82142 45.2959 6.72476 45.2219C6.6281 45.1479 6.55851 45.0441 6.52675 44.9267C6.48865 44.7845 6.50852 44.6331 6.58201 44.5057C6.65549 44.3782 6.77657 44.2851 6.91863 44.2469L12.3328 42.794C12.6289 42.7225 12.9326 42.8914 13.0116 43.1859C13.0497 43.328 13.0299 43.4795 12.9564 43.6069C12.8829 43.7344 12.7618 43.8275 12.6197 43.8657L7.20555 45.3185C7.1583 45.3296 7.10998 45.3354 7.06147 45.3359Z" fill="#184383"/>
<path d="M52.3546 20.8651C52.2818 20.8652 52.2097 20.8509 52.1425 20.823C52.0752 20.7951 52.0141 20.7543 51.9627 20.7027C51.9112 20.6513 51.8703 20.5902 51.8425 20.5229C51.8146 20.4557 51.8002 20.3836 51.8002 20.3108C51.8002 20.238 51.8146 20.166 51.8425 20.0987C51.8703 20.0315 51.9112 19.9704 51.9627 19.9189L55.925 15.9544C56.1416 15.7378 56.4923 15.7378 56.7088 15.9544C56.9252 16.1711 56.9254 16.5218 56.7088 16.7382L52.7465 20.7027C52.6951 20.7542 52.634 20.7951 52.5667 20.823C52.4995 20.8508 52.4274 20.8652 52.3546 20.8651ZM14.6855 58.5346C14.5758 58.5348 14.4686 58.5024 14.3773 58.4415C14.2861 58.3806 14.215 58.294 14.173 58.1927C14.1311 58.0914 14.1201 57.9799 14.1416 57.8723C14.163 57.7648 14.216 57.666 14.2936 57.5886L18.2548 53.624C18.3587 53.52 18.4997 53.4616 18.6467 53.4616C18.7936 53.4616 18.9346 53.52 19.0385 53.624C19.1425 53.7279 19.2009 53.8689 19.2009 54.0159C19.2009 54.1628 19.1425 54.3038 19.0385 54.4077L15.0772 58.3724C15.0259 58.4239 14.9648 58.4648 14.8976 58.4927C14.8304 58.5205 14.7583 58.5348 14.6855 58.5346Z" fill="#184383"/>
<path d="M41.6692 14.6968C41.6215 14.6968 41.5739 14.6904 41.5263 14.6785C41.4559 14.6598 41.3899 14.6274 41.3321 14.5831C41.2742 14.5388 41.2257 14.4836 41.1893 14.4205C41.1529 14.3574 41.1293 14.2877 41.1199 14.2155C41.1105 14.1432 41.1154 14.0699 41.1345 13.9995L42.5809 8.58441C42.661 8.28876 42.9684 8.12208 43.2597 8.19142C43.4017 8.22965 43.5227 8.32252 43.5963 8.44972C43.67 8.57692 43.6902 8.7281 43.6527 8.87021L42.2042 14.2855C42.1391 14.5333 41.9139 14.6968 41.6692 14.6968Z" fill="#184383"/>
<path d="M29.332 14.6975C29.2102 14.6973 29.0918 14.6571 28.9952 14.5829C28.8985 14.5088 28.829 14.4049 28.7973 14.2873L27.3433 8.87413C27.3244 8.80386 27.3195 8.73055 27.3289 8.65839C27.3383 8.58623 27.3619 8.51663 27.3982 8.45359C27.4346 8.39054 27.483 8.33528 27.5407 8.29096C27.5984 8.24665 27.6643 8.21415 27.7346 8.19533C27.8765 8.15713 28.0278 8.17683 28.1551 8.25011C28.2825 8.32339 28.3755 8.44424 28.4138 8.58611L29.8678 13.999C29.8867 14.0693 29.8916 14.1426 29.8822 14.2148C29.8728 14.2869 29.8492 14.3565 29.8129 14.4196C29.7765 14.4826 29.7281 14.5379 29.6704 14.5823C29.6127 14.6266 29.5468 14.6591 29.4765 14.678C29.4294 14.6909 29.3808 14.6975 29.332 14.6975Z" fill="#184383"/>
<path d="M18.6476 20.8657C18.5748 20.8658 18.5028 20.8514 18.4355 20.8236C18.3683 20.7957 18.3072 20.7548 18.2558 20.7033L14.2913 16.7431C14.2398 16.6917 14.199 16.6306 14.1711 16.5633C14.1432 16.4961 14.1289 16.424 14.1289 16.3512C14.1289 16.2785 14.1432 16.2064 14.1711 16.1391C14.199 16.0719 14.2398 16.0108 14.2913 15.9593C14.3427 15.9078 14.4038 15.867 14.471 15.8391C14.5383 15.8112 14.6104 15.7969 14.6832 15.7969C14.7559 15.7969 14.828 15.8112 14.8953 15.8391C14.9625 15.867 15.0236 15.9078 15.075 15.9593L19.0395 19.9195C19.1171 19.997 19.1699 20.0958 19.1913 20.2033C19.2128 20.3108 19.2018 20.4223 19.1598 20.5236C19.1179 20.6249 19.0468 20.7115 18.9557 20.7724C18.8645 20.8333 18.7573 20.8657 18.6476 20.8657ZM56.3178 58.5352C56.2451 58.5353 56.173 58.521 56.1057 58.4932C56.0385 58.4653 55.9774 58.4245 55.926 58.373L51.9615 54.4126C51.91 54.3612 51.8692 54.3001 51.8413 54.2328C51.8135 54.1656 51.7991 54.0935 51.7991 54.0208C51.7991 53.948 51.8135 53.8759 51.8413 53.8087C51.8692 53.7414 51.91 53.6803 51.9615 53.6289C52.0129 53.5774 52.074 53.5366 52.1413 53.5087C52.2085 53.4809 52.2806 53.4665 52.3534 53.4665C52.4261 53.4665 52.4982 53.4809 52.5654 53.5087C52.6327 53.5366 52.6938 53.5774 52.7452 53.6289L56.7097 57.5892C56.7874 57.6666 56.8403 57.7654 56.8618 57.873C56.8832 57.9805 56.8723 58.092 56.8303 58.1933C56.7884 58.2947 56.7172 58.3812 56.626 58.4421C56.5348 58.503 56.4275 58.5354 56.3178 58.5352Z" fill="#184383"/>
<path d="M12.4777 31.5507C12.43 31.5507 12.3819 31.5442 12.3338 31.5323L6.91852 30.0838C6.77658 30.0457 6.65558 29.9528 6.5821 29.8255C6.50862 29.6983 6.48867 29.547 6.52663 29.405C6.60567 29.1095 6.91255 28.9417 7.20543 29.012L12.6206 30.4606C12.7625 30.4987 12.8835 30.5916 12.957 30.7189C13.0305 30.8462 13.0504 30.9974 13.0125 31.1394C12.9811 31.2573 12.9116 31.3615 12.8149 31.4359C12.7183 31.5102 12.5997 31.5506 12.4777 31.5507ZM63.9344 45.3382C63.8867 45.3382 63.839 45.3316 63.7916 45.3186L58.3785 43.8702C58.0819 43.79 57.9065 43.4869 57.9867 43.1925C58.0646 42.8957 58.372 42.727 58.6643 42.7984L64.0774 44.2468C64.1478 44.2656 64.2139 44.2981 64.2717 44.3425C64.3296 44.3868 64.3781 44.4422 64.4145 44.5053C64.4509 44.5685 64.4745 44.6382 64.4839 44.7105C64.4933 44.7828 64.4883 44.8562 64.4693 44.9266C64.4378 45.0445 64.3684 45.1487 64.2717 45.2231C64.175 45.2975 64.0564 45.3379 63.9344 45.3382Z" fill="#184383"/>
</svg>
