<svg width="69" height="69" viewBox="0 0 69 69" fill="none" xmlns="http://www.w3.org/2000/svg">
<path d="M32.8839 67.3759C14.7563 67.3759 0.0078125 52.6274 0.0078125 34.5C0.0078125 16.3725 14.7563 1.62402 32.8839 1.62402C43.4377 1.62402 53.4228 6.74714 59.5935 15.3273C59.6767 15.4435 59.7105 15.588 59.6874 15.729C59.6643 15.8701 59.5863 15.9963 59.4703 16.0799C59.2271 16.2526 58.8914 16.1989 58.7176 15.9568C52.7491 7.65667 43.0913 2.70201 32.8839 2.70201C15.3499 2.70188 1.0858 16.9661 1.0858 34.5C1.0858 52.0336 15.3501 66.298 32.8839 66.298C50.4176 66.298 64.682 52.0336 64.682 34.5C64.6819 34.4292 64.6958 34.3591 64.7229 34.2937C64.7499 34.2283 64.7896 34.1688 64.8397 34.1188C64.8898 34.0687 64.9492 34.029 65.0146 34.0019C65.08 33.9749 65.1501 33.961 65.2209 33.961C65.2917 33.961 65.3618 33.9749 65.4272 34.002C65.4926 34.0291 65.552 34.0688 65.6021 34.1188C65.6521 34.1689 65.6918 34.2283 65.7189 34.2937C65.7459 34.3591 65.7599 34.4292 65.7598 34.5C65.7598 52.6274 51.0113 67.3759 32.8839 67.3759Z" fill="#184383"/>
<path d="M68.4543 38.2725C68.3835 38.2726 68.3134 38.2587 68.248 38.2316C68.1826 38.2045 68.1232 38.1647 68.0732 38.1146L64.8395 34.8809C64.7894 34.8308 64.7497 34.7714 64.7227 34.706C64.6956 34.6407 64.6816 34.5706 64.6816 34.4998C64.6816 34.4291 64.6956 34.359 64.7227 34.2936C64.7497 34.2282 64.7894 34.1688 64.8395 34.1188C64.8895 34.0687 64.9489 34.029 65.0143 34.002C65.0797 33.9749 65.1498 33.9609 65.2205 33.9609C65.2913 33.9609 65.3614 33.9749 65.4268 34.002C65.4921 34.029 65.5515 34.0687 65.6016 34.1188L68.8353 37.3526C68.8853 37.4026 68.925 37.462 68.9521 37.5274C68.9792 37.5928 68.9931 37.6628 68.9931 37.7336C68.9931 37.8044 68.9792 37.8744 68.9521 37.9398C68.925 38.0052 68.8853 38.0646 68.8353 38.1146C68.7853 38.1647 68.726 38.2045 68.6606 38.2316C68.5952 38.2587 68.5251 38.2726 68.4543 38.2725Z" fill="#184383"/>
<path d="M61.9872 38.2726C61.8806 38.2727 61.7763 38.2411 61.6876 38.182C61.5989 38.1228 61.5298 38.0386 61.489 37.9401C61.4482 37.8416 61.4375 37.7332 61.4584 37.6286C61.4792 37.524 61.5306 37.428 61.6061 37.3527L64.8398 34.1188C64.8898 34.0688 64.9492 34.0291 65.0146 34.002C65.08 33.9749 65.1501 33.961 65.2208 33.961C65.2916 33.961 65.3617 33.9749 65.4271 34.002C65.4924 34.0291 65.5518 34.0688 65.6019 34.1188C65.6519 34.1689 65.6916 34.2283 65.7187 34.2936C65.7458 34.359 65.7597 34.4291 65.7597 34.4999C65.7597 34.5706 65.7458 34.6407 65.7187 34.7061C65.6916 34.7715 65.6519 34.8309 65.6019 34.8809L62.3682 38.1146C62.3182 38.1648 62.2589 38.2046 62.1935 38.2317C62.1281 38.2588 62.058 38.2727 61.9872 38.2726ZM49.0524 49.5906H18.8711C18.5731 49.5906 18.332 49.3495 18.332 49.0517V25.3378C18.332 25.267 18.3459 25.1969 18.373 25.1314C18.4001 25.066 18.4398 25.0066 18.4898 24.9565C18.5399 24.9065 18.5994 24.8668 18.6648 24.8397C18.7302 24.8127 18.8003 24.7988 18.8711 24.7988H49.0523C49.3502 24.7988 49.5913 25.0399 49.5913 25.3378V49.0517C49.5914 49.1224 49.5774 49.1925 49.5504 49.2579C49.5233 49.3233 49.4836 49.3828 49.4336 49.4328C49.3835 49.4829 49.3241 49.5226 49.2587 49.5496C49.1933 49.5767 49.1232 49.5906 49.0524 49.5906ZM19.41 48.5127H48.5133V25.8767H19.41V48.5127Z" fill="#184383"/>
<path d="M49.0521 25.8767H18.8708C18.7642 25.8767 18.66 25.8451 18.5714 25.7859C18.4827 25.7267 18.4136 25.6426 18.3728 25.5441C18.3322 25.4456 18.3216 25.3373 18.3424 25.2328C18.3632 25.1283 18.4144 25.0323 18.4896 24.9568L22.8013 20.6452C22.8514 20.5952 22.9108 20.5554 22.9762 20.5283C23.0416 20.5012 23.1117 20.4873 23.1825 20.4873H44.7405C44.8836 20.4873 45.0204 20.5442 45.1215 20.6452L49.4332 24.9568C49.5084 25.0323 49.5596 25.1283 49.5804 25.2328C49.6012 25.3373 49.5906 25.4456 49.55 25.5441C49.5092 25.6426 49.4401 25.7267 49.3515 25.7859C49.2628 25.8451 49.1586 25.8767 49.0521 25.8767ZM20.1719 24.7989H47.751L44.5173 21.5652H23.4055L20.1719 24.7989Z" fill="#184383"/>
<path d="M30.7282 25.8769C30.6363 25.8768 30.5461 25.8532 30.4659 25.8084C30.3858 25.7636 30.3184 25.6991 30.2701 25.621C30.2218 25.5429 30.1942 25.4538 30.19 25.3621C30.1858 25.2704 30.2051 25.1791 30.246 25.0969L32.4018 20.7852C32.5366 20.52 32.8587 20.4115 33.125 20.5441C33.2528 20.6081 33.3499 20.7202 33.3951 20.8558C33.4403 20.9914 33.4299 21.1394 33.3661 21.2672L31.2102 25.5788C31.1654 25.6683 31.0966 25.7435 31.0114 25.7962C30.9263 25.8488 30.8282 25.8768 30.7282 25.8769ZM37.1956 25.8769C37.0955 25.8768 36.9975 25.8489 36.9124 25.7963C36.8272 25.7437 36.7584 25.6685 36.7135 25.5791L34.5577 21.2675C34.4939 21.1396 34.4834 20.9917 34.5286 20.8561C34.5738 20.7205 34.671 20.6084 34.7988 20.5444C34.8621 20.5126 34.931 20.4937 35.0016 20.4887C35.0722 20.4836 35.1432 20.4926 35.2103 20.5149C35.2775 20.5373 35.3396 20.5728 35.3931 20.6192C35.4465 20.6656 35.4903 20.7221 35.5219 20.7855L37.6776 25.0972C37.7414 25.225 37.7519 25.373 37.7067 25.5086C37.6615 25.6442 37.5643 25.7563 37.4365 25.8203C37.3617 25.8576 37.2792 25.877 37.1956 25.8769Z" fill="#FBD826"/>
<path d="M30.7264 30.1885C30.6556 30.1885 30.5855 30.1746 30.5201 30.1475C30.4547 30.1205 30.3953 30.0808 30.3452 30.0307C30.2952 29.9806 30.2555 29.9212 30.2284 29.8558C30.2013 29.7904 30.1874 29.7202 30.1875 29.6494V25.3378C30.1875 25.0399 30.4286 24.7988 30.7264 24.7988C31.0243 24.7988 31.2654 25.0399 31.2654 25.3378V29.6494C31.2654 29.9474 31.0243 30.1885 30.7264 30.1885Z" fill="#FBD826"/>
<path d="M37.1938 30.1883H30.7264C30.4286 30.1883 30.1875 29.9472 30.1875 29.6493C30.1875 29.3513 30.4286 29.1104 30.7264 29.1104H37.1938C37.4917 29.1104 37.7328 29.3514 37.7328 29.6493C37.7328 29.9471 37.4917 30.1883 37.1938 30.1883Z" fill="#FBD826"/>
<path d="M37.1938 30.1885C37.123 30.1885 37.0529 30.1746 36.9875 30.1475C36.9221 30.1205 36.8627 30.0808 36.8126 30.0307C36.7626 29.9806 36.7229 29.9212 36.6958 29.8558C36.6688 29.7903 36.6549 29.7202 36.6549 29.6494V25.3378C36.6549 25.267 36.6688 25.1969 36.6959 25.1315C36.7229 25.0661 36.7626 25.0066 36.8127 24.9566C36.8627 24.9065 36.9221 24.8668 36.9875 24.8398C37.053 24.8127 37.123 24.7988 37.1938 24.7988C37.2646 24.7988 37.3347 24.8127 37.4001 24.8398C37.4655 24.8668 37.5249 24.9065 37.575 24.9566C37.625 25.0066 37.6647 25.0661 37.6918 25.1315C37.7189 25.1969 37.7328 25.267 37.7328 25.3378V29.6494C37.7328 29.9474 37.4917 30.1885 37.1938 30.1885ZM30.7264 30.7274C30.6556 30.7275 30.5855 30.7136 30.5201 30.6865C30.4547 30.6594 30.3953 30.6197 30.3453 30.5697C30.2952 30.5196 30.2555 30.4602 30.2285 30.3948C30.2014 30.3294 30.1875 30.2593 30.1875 30.1885V29.6494C30.1875 29.3516 30.4286 29.1105 30.7264 29.1105C31.0243 29.1105 31.2654 29.3516 31.2654 29.6494V30.1885C31.2654 30.2593 31.2515 30.3294 31.2244 30.3948C31.1973 30.4602 31.1576 30.5196 31.1076 30.5697C31.0575 30.6197 30.9981 30.6594 30.9327 30.6865C30.8673 30.7136 30.7972 30.7275 30.7264 30.7274ZM32.8823 30.7274C32.5843 30.7274 32.3432 30.4863 32.3432 30.1885V29.6494C32.3432 29.5787 32.3571 29.5085 32.3842 29.4431C32.4113 29.3777 32.451 29.3183 32.501 29.2682C32.5511 29.2182 32.6105 29.1785 32.676 29.1514C32.7414 29.1244 32.8115 29.1105 32.8823 29.1105C32.9531 29.1105 33.0232 29.1244 33.0886 29.1515C33.154 29.1785 33.2134 29.2182 33.2634 29.2683C33.3135 29.3183 33.3532 29.3778 33.3803 29.4432C33.4073 29.5086 33.4212 29.5787 33.4212 29.6494V30.1885C33.4212 30.2593 33.4073 30.3294 33.3803 30.3948C33.3532 30.4602 33.3135 30.5196 33.2634 30.5697C33.2134 30.6197 33.154 30.6594 33.0886 30.6865C33.0232 30.7136 32.9531 30.7275 32.8823 30.7274ZM35.038 30.7274C34.9672 30.7275 34.8971 30.7136 34.8317 30.6865C34.7663 30.6594 34.7069 30.6197 34.6568 30.5697C34.6068 30.5196 34.5671 30.4602 34.54 30.3948C34.5129 30.3294 34.499 30.2593 34.4991 30.1885V29.6494C34.499 29.5787 34.5129 29.5086 34.54 29.4432C34.5671 29.3778 34.6068 29.3183 34.6568 29.2683C34.7069 29.2182 34.7663 29.1785 34.8317 29.1515C34.8971 29.1244 34.9672 29.1105 35.038 29.1105C35.336 29.1105 35.577 29.3516 35.577 29.6494V30.1885C35.5771 30.2593 35.5632 30.3294 35.5361 30.3948C35.509 30.4602 35.4693 30.5197 35.4192 30.5697C35.3692 30.6198 35.3097 30.6595 35.2443 30.6865C35.1789 30.7136 35.1088 30.7275 35.038 30.7274Z" fill="#FBD826"/>
<path d="M37.1939 30.7273C37.1231 30.7273 37.053 30.7134 36.9876 30.6863C36.9222 30.6592 36.8628 30.6196 36.8127 30.5695C36.7627 30.5195 36.723 30.46 36.6959 30.3946C36.6689 30.3292 36.6549 30.2591 36.655 30.1883V29.6493C36.6549 29.5785 36.6689 29.5084 36.6959 29.443C36.723 29.3776 36.7627 29.3182 36.8127 29.2681C36.8628 29.2181 36.9222 29.1784 36.9876 29.1513C37.053 29.1242 37.1231 29.1103 37.1939 29.1104C37.2647 29.1103 37.3348 29.1242 37.4002 29.1513C37.4656 29.1784 37.525 29.2181 37.5751 29.2681C37.6251 29.3182 37.6648 29.3776 37.6919 29.443C37.7189 29.5084 37.7329 29.5785 37.7328 29.6493V30.1883C37.7329 30.2591 37.7189 30.3292 37.6919 30.3946C37.6648 30.46 37.6251 30.5195 37.5751 30.5695C37.525 30.6196 37.4656 30.6592 37.4002 30.6863C37.3348 30.7134 37.2647 30.7273 37.1939 30.7273ZM46.895 47.4347H44.7392C44.6684 47.4347 44.5983 47.4208 44.5328 47.3937C44.4674 47.3667 44.408 47.327 44.358 47.2769C44.3079 47.2268 44.2682 47.1674 44.2411 47.102C44.2141 47.0365 44.2002 46.9664 44.2002 46.8956V44.7399C44.2002 44.442 44.4413 44.2009 44.7392 44.2009H46.895C46.9658 44.2008 47.0359 44.2148 47.1013 44.2418C47.1667 44.2689 47.2262 44.3086 47.2762 44.3587C47.3263 44.4088 47.366 44.4682 47.393 44.5336C47.4201 44.599 47.434 44.6691 47.4339 44.7399V46.8956C47.4339 47.1936 47.1928 47.4347 46.895 47.4347ZM45.2781 46.3567H46.3559V45.2789H45.2781V46.3567ZM42.5833 47.4347H40.4276C40.3568 47.4347 40.2867 47.4208 40.2213 47.3937C40.1559 47.3667 40.0964 47.327 40.0464 47.2769C39.9963 47.2268 39.9566 47.1674 39.9296 47.102C39.9025 47.0365 39.8886 46.9664 39.8887 46.8956V44.7399C39.8887 44.442 40.1296 44.2009 40.4276 44.2009H42.5833C42.8813 44.2009 43.1224 44.442 43.1224 44.7399V46.8956C43.1224 47.1936 42.8813 47.4347 42.5833 47.4347ZM40.9665 46.3567H42.0444V45.2789H40.9665V46.3567ZM31.8044 45.2789H21.0253C20.9545 45.2789 20.8844 45.265 20.819 45.2379C20.7536 45.2108 20.6941 45.1711 20.6441 45.1211C20.594 45.071 20.5544 45.0116 20.5273 44.9462C20.5002 44.8808 20.4863 44.8107 20.4863 44.7399C20.4863 44.442 20.7274 44.2009 21.0253 44.2009H31.8044C31.8751 44.2008 31.9453 44.2148 32.0107 44.2418C32.0761 44.2689 32.1355 44.3086 32.1856 44.3587C32.2356 44.4088 32.2753 44.4682 32.3024 44.5336C32.3294 44.599 32.3433 44.6691 32.3433 44.7399C32.3433 44.8107 32.3294 44.8808 32.3023 44.9462C32.2753 45.0116 32.2356 45.071 32.1855 45.1211C32.1355 45.1711 32.076 45.2108 32.0106 45.2379C31.9452 45.265 31.8751 45.2789 31.8044 45.2789ZM26.4149 47.4347H21.0254C20.9546 47.4347 20.8845 47.4208 20.8191 47.3937C20.7537 47.3667 20.6942 47.327 20.6442 47.2769C20.5941 47.2268 20.5544 47.1674 20.5274 47.102C20.5003 47.0365 20.4864 46.9664 20.4865 46.8956C20.4864 46.8249 20.5003 46.7548 20.5274 46.6894C20.5545 46.624 20.5942 46.5645 20.6442 46.5145C20.6943 46.4644 20.7537 46.4247 20.8191 46.3977C20.8845 46.3706 20.9546 46.3567 21.0254 46.3567H26.4149C26.4857 46.3567 26.5558 46.3706 26.6212 46.3977C26.6866 46.4247 26.746 46.4644 26.7961 46.5145C26.8461 46.5645 26.8858 46.624 26.9129 46.6894C26.94 46.7548 26.9539 46.8249 26.9539 46.8956C26.9539 47.1936 26.7128 47.4347 26.4149 47.4347Z" fill="#FBD826"/>
</svg>
