<svg width="65" height="65" viewBox="0 0 65 65" fill="none" xmlns="http://www.w3.org/2000/svg">
<g clip-path="url(#clip0_109_31815)">
<path d="M34.6295 64.9597C33.8494 64.9597 33.0699 64.6627 32.4763 64.0696C32.4291 64.0225 32.3917 63.9666 32.3662 63.905C32.3407 63.8434 32.3275 63.7775 32.3275 63.7108C32.3275 63.6442 32.3407 63.5782 32.3662 63.5166C32.3917 63.4551 32.4291 63.3991 32.4763 63.352C32.5234 63.3049 32.5793 63.2675 32.6409 63.242C32.7025 63.2165 32.7685 63.2033 32.8351 63.2033C32.9018 63.2033 32.9678 63.2165 33.0293 63.242C33.0909 63.2675 33.1468 63.3049 33.1939 63.352C33.9868 64.1438 35.2753 64.1428 36.0663 63.351C36.8568 62.5596 36.8563 61.272 36.0642 60.4807C36.0171 60.4337 35.9797 60.3777 35.9541 60.3162C35.9286 60.2546 35.9155 60.1886 35.9155 60.122C35.9155 60.0553 35.9286 59.9893 35.9541 59.9278C35.9797 59.8662 36.0171 59.8103 36.0642 59.7632C36.1113 59.716 36.1672 59.6786 36.2288 59.6531C36.2904 59.6276 36.3564 59.6145 36.423 59.6145C36.4896 59.6145 36.5556 59.6276 36.6172 59.6531C36.6787 59.6786 36.7347 59.716 36.7818 59.7632C37.9692 60.9496 37.97 62.8808 36.7838 64.0687C36.19 64.6622 35.4094 64.9597 34.6295 64.9597ZM39.655 59.9374C38.8407 59.9374 38.0755 59.6203 37.5002 59.0444C37.453 58.9973 37.4156 58.9414 37.3901 58.8798C37.3646 58.8183 37.3514 58.7523 37.3514 58.6856C37.3514 58.619 37.3646 58.553 37.3901 58.4914C37.4156 58.4299 37.453 58.374 37.5002 58.3269C37.5473 58.2797 37.6032 58.2423 37.6648 58.2168C37.7263 58.1912 37.7923 58.1781 37.859 58.1781C37.9256 58.1781 37.9916 58.1912 38.0532 58.2168C38.1147 58.2423 38.1706 58.2797 38.2177 58.3269C38.9839 59.0935 40.3213 59.0956 41.088 58.3289C41.8794 57.5376 41.8789 56.2494 41.087 55.4576L37.1403 51.5088C37.0932 51.4617 37.0558 51.4058 37.0303 51.3442C37.0048 51.2827 36.9917 51.2167 36.9917 51.1501C36.9917 51.0834 37.0048 51.0175 37.0303 50.9559C37.0558 50.8943 37.0932 50.8384 37.1403 50.7913C37.1874 50.7442 37.2433 50.7068 37.3049 50.6813C37.3664 50.6558 37.4324 50.6427 37.499 50.6427C37.5657 50.6427 37.6317 50.6558 37.6932 50.6813C37.7548 50.7068 37.8107 50.7442 37.8578 50.7913L41.8045 54.74C42.9924 55.9274 42.9924 57.8597 41.8056 59.0466C41.2318 59.6208 40.4678 59.9374 39.655 59.9374ZM44.6766 54.9128C43.8965 54.9128 43.1171 54.616 42.5233 54.0223L38.5766 50.0754C38.5295 50.0283 38.4921 49.9724 38.4666 49.9108C38.4411 49.8493 38.428 49.7833 38.428 49.7166C38.428 49.65 38.4411 49.584 38.4666 49.5225C38.4921 49.4609 38.5295 49.405 38.5766 49.3579C38.6237 49.3108 38.6797 49.2734 38.7412 49.2479C38.8028 49.2224 38.8688 49.2093 38.9354 49.2093C39.002 49.2093 39.068 49.2224 39.1296 49.2479C39.1911 49.2734 39.2471 49.3108 39.2942 49.3579L43.2409 53.3047C44.0328 54.0965 45.3204 54.0965 46.1122 53.3047C46.9041 52.5128 46.9041 51.2242 46.1122 50.4323L42.1645 46.4866C41.9662 46.2884 41.9662 45.9672 42.1645 45.769C42.3628 45.5709 42.6839 45.5707 42.882 45.769L46.8297 49.7147C48.0176 50.9023 48.0176 52.835 46.8297 54.0224C46.2362 54.616 45.4567 54.9128 44.6766 54.9128ZM49.7006 49.8888C48.9212 49.8888 48.1418 49.5924 47.5479 48.9996L43.5997 45.0505C43.5525 45.0034 43.5152 44.9474 43.4896 44.8859C43.4641 44.8243 43.451 44.7583 43.451 44.6917C43.451 44.6251 43.4641 44.5591 43.4896 44.4975C43.5152 44.436 43.5525 44.3801 43.5997 44.3329C43.6467 44.2858 43.7027 44.2484 43.7642 44.2229C43.8258 44.1973 43.8918 44.1842 43.9584 44.1842C44.0251 44.1842 44.0911 44.1973 44.1526 44.2229C44.2142 44.2484 44.2701 44.2858 44.3172 44.3329L48.2649 48.2817C49.0569 49.0717 50.3444 49.0726 51.1353 48.2817C51.9271 47.4898 51.9271 46.2013 51.1353 45.4094L37.8591 32.1338C37.8119 32.0867 37.7745 32.0307 37.749 31.9692C37.7235 31.9076 37.7103 31.8416 37.7103 31.775C37.7103 31.7083 37.7235 31.6424 37.749 31.5808C37.7745 31.5192 37.8119 31.4633 37.8591 31.4162C37.9062 31.3691 37.9621 31.3317 38.0237 31.3061C38.0852 31.2806 38.1512 31.2675 38.2179 31.2675C38.2845 31.2675 38.3505 31.2806 38.412 31.3061C38.4736 31.3317 38.5295 31.3691 38.5766 31.4162L51.853 44.6916C53.0408 45.8791 53.0408 47.8117 51.853 48.9991C51.2604 49.5924 50.4808 49.8888 49.7006 49.8888ZM12.4139 42.298C12.3202 42.2981 12.2284 42.2723 12.1485 42.2233C12.0686 42.1744 12.0039 42.1043 11.9614 42.0209C9.7636 37.7099 9.04047 33.4718 9.01077 33.2934C8.98873 33.1607 9.02025 33.0247 9.09839 32.9153C9.17654 32.8058 9.29493 32.7319 9.42755 32.7096C9.7066 32.668 9.9652 32.8508 10.0118 33.1264C10.0188 33.1691 10.7418 37.3942 12.8653 41.5602C12.9048 41.6375 12.9238 41.7236 12.9205 41.8103C12.9172 41.8971 12.8917 41.9815 12.8464 42.0556C12.8011 42.1296 12.7375 42.1908 12.6618 42.2333C12.586 42.2757 12.5007 42.298 12.4139 42.298ZM27.6097 24.2284C27.5424 24.2285 27.4759 24.2151 27.4139 24.1892C23.8904 22.7138 21.5002 21.4715 21.4764 21.459C21.3572 21.3966 21.2675 21.2895 21.2272 21.1611C21.1869 21.0327 21.1992 20.8935 21.2614 20.7741C21.2921 20.7149 21.3342 20.6623 21.3853 20.6194C21.4364 20.5765 21.4954 20.5442 21.5591 20.5242C21.6227 20.5042 21.6897 20.497 21.7562 20.503C21.8226 20.509 21.8872 20.528 21.9463 20.5591C21.9696 20.5715 24.3245 21.7956 27.8054 23.2525C27.9134 23.2979 28.0023 23.3793 28.0572 23.4828C28.1121 23.5863 28.1294 23.7056 28.1064 23.8205C28.0834 23.9353 28.0213 24.0387 27.9308 24.113C27.8403 24.1874 27.7268 24.2281 27.6097 24.2284ZM51.7297 42.9205C51.6365 42.9205 51.545 42.8948 51.4654 42.8463C51.3858 42.7977 51.3211 42.7282 51.2785 42.6453C51.2358 42.5624 51.2168 42.4693 51.2236 42.3763C51.2304 42.2833 51.2627 42.194 51.3169 42.1181C54.3462 37.8706 54.9301 31.79 54.9356 31.729C54.9613 31.4505 55.2006 31.2414 55.4872 31.2696C55.6212 31.2819 55.7449 31.3469 55.831 31.4503C55.9171 31.5538 55.9587 31.6872 55.9465 31.8212C55.9226 32.0808 55.3305 38.2389 52.1436 42.7079C52.0965 42.7738 52.0344 42.8274 51.9624 42.8644C51.8904 42.9013 51.8107 42.9206 51.7297 42.9205ZM30.3234 63.5253H30.3229C29.5101 63.5253 28.7455 63.2082 28.1707 62.6335C26.9843 61.4475 26.9843 59.5156 28.1702 58.3274L30.3234 56.1741C31.4751 55.0235 33.4802 55.0244 34.629 56.1751C35.8159 57.362 35.8159 59.2937 34.629 60.4807L32.4772 62.6325C31.9013 63.2082 31.1365 63.5253 30.3234 63.5253ZM32.4767 56.2979C32.2099 56.2972 31.9456 56.3494 31.6991 56.4514C31.4526 56.5534 31.2287 56.7032 31.0404 56.8922L28.8882 59.0444C28.0978 59.8368 28.0973 61.1249 28.8882 61.9158C29.0761 62.1049 29.2997 62.2548 29.546 62.3569C29.7922 62.4589 30.0563 62.5111 30.3229 62.5105H30.3234C30.8656 62.5105 31.3756 62.299 31.7595 61.9149L33.9114 59.7632C34.7027 58.9718 34.7027 57.6841 33.9114 56.8928C33.7235 56.7036 33.5 56.5536 33.2537 56.4514C33.0074 56.3493 32.7433 56.2971 32.4767 56.2979ZM25.2992 58.5018C24.4865 58.5018 23.7223 58.1852 23.1475 57.6103C21.9611 56.4226 21.9611 54.4907 23.1475 53.3028L26.0179 50.4324C27.1686 49.2832 29.1757 49.2822 30.3234 50.4324C31.5108 51.6199 31.5108 53.5516 30.3234 54.739L27.4531 57.6093C26.8776 58.1847 26.1125 58.5018 25.2992 58.5018ZM28.1716 50.5563C27.9048 50.5554 27.6406 50.6075 27.3941 50.7094C27.1476 50.8112 26.9237 50.961 26.7355 51.1499L23.865 54.0204C23.0741 54.8122 23.0741 56.1009 23.865 56.8927C24.0529 57.0816 24.2764 57.2314 24.5226 57.3335C24.7688 57.4355 25.0328 57.4876 25.2992 57.4869C25.5661 57.4875 25.8304 57.4352 26.0769 57.3331C26.3234 57.2309 26.5472 57.0809 26.7355 56.8918L29.6057 54.0215C30.3972 53.2301 30.3972 51.9415 29.6057 51.1501C29.4179 50.9611 29.1944 50.8113 28.9482 50.7093C28.702 50.6074 28.438 50.5554 28.1716 50.5563ZM20.2761 53.4771C19.4623 53.4771 18.6982 53.161 18.1242 52.5859C17.5489 52.0117 17.2317 51.2469 17.2312 50.4337C17.2299 50.0335 17.308 49.6371 17.461 49.2673C17.6139 48.8975 17.8387 48.5617 18.1223 48.2794L20.2761 46.1267C21.4263 44.9754 23.4334 44.9763 24.5826 46.1277C25.1579 46.7016 25.4747 47.4658 25.4747 48.2794C25.4747 49.0922 25.1579 49.8569 24.5826 50.4321L22.4288 52.5859C21.8535 53.161 21.0888 53.4771 20.2761 53.4771ZM22.429 46.2498C22.1623 46.2491 21.8981 46.3012 21.6518 46.4033C21.4054 46.5054 21.1817 46.6553 20.9937 46.8445L18.84 48.9972C18.651 49.1854 18.5012 49.4093 18.3993 49.6558C18.2974 49.9023 18.2454 50.1666 18.2464 50.4333C18.2459 50.7 18.2983 50.9642 18.4006 51.2105C18.5028 51.4568 18.6529 51.6805 18.842 51.8685C19.6072 52.6347 20.9442 52.6347 21.7114 51.8685L23.8652 49.7147C24.0543 49.5267 24.2042 49.3031 24.3063 49.0567C24.4084 48.8104 24.4606 48.5462 24.4599 48.2795C24.4599 47.7374 24.2488 47.2285 23.8657 46.8459C23.6776 46.6564 23.4537 46.5061 23.2071 46.4038C22.9604 46.3015 22.696 46.2491 22.429 46.2498ZM15.2525 48.4541H15.252C14.4388 48.4541 13.6746 48.1379 13.1003 47.5629C11.9133 46.3751 11.9133 44.4434 13.1003 43.2564L14.5355 41.8212C15.6857 40.6705 17.6898 40.6724 18.84 41.8222C19.4153 42.3974 19.7321 43.1617 19.7326 43.9744C19.7331 44.7872 19.4164 45.5514 18.841 46.1267L17.4058 47.5619C16.8303 48.1373 16.0657 48.4541 15.2525 48.4541ZM16.6867 41.9447C16.4203 41.9441 16.1565 41.9962 15.9104 42.0982C15.6643 42.2003 15.4409 42.35 15.2531 42.539L13.8178 43.9742C13.0269 44.7656 13.0269 46.0535 13.8178 46.8455C14.0058 47.0344 14.2293 47.1841 14.4755 47.286C14.7216 47.388 14.9856 47.44 15.252 47.4392H15.2525C15.7948 47.4392 16.3046 47.2281 16.6883 46.8445L18.1235 45.4092C18.507 45.0257 18.7177 44.5163 18.7177 43.9746C18.7177 43.4328 18.5061 42.9235 18.1226 42.5399C17.7383 42.1563 17.2288 41.9447 16.6867 41.9447ZM26.0188 34.8178C25.2387 34.8178 24.4587 34.5205 23.865 33.9267C22.6782 32.7398 22.6782 30.8091 23.865 29.6222L28.5294 24.956C32.9044 20.581 42.7534 19.1315 43.17 19.0716C43.4446 19.0274 43.7044 19.2242 43.7445 19.5022C43.7635 19.6355 43.7288 19.7708 43.6481 19.8785C43.5673 19.9863 43.447 20.0575 43.3138 20.0765C43.2146 20.0904 33.382 21.5384 29.2468 25.6735L24.5826 30.3398C23.7917 31.1307 23.7917 32.4183 24.5826 33.2092C25.374 34.0011 26.6614 34.0011 27.453 33.2102C27.7167 32.9465 33.9484 26.7906 37.1414 29.9801C37.1885 30.0272 37.2259 30.0832 37.2514 30.1447C37.2769 30.2063 37.2901 30.2723 37.2901 30.3389C37.2901 30.4055 37.2769 30.4715 37.2514 30.5331C37.2259 30.5946 37.1885 30.6506 37.1414 30.6977C37.0943 30.7448 37.0384 30.7822 36.9768 30.8078C36.9153 30.8333 36.8493 30.8464 36.7826 30.8464C36.716 30.8464 36.65 30.8333 36.5885 30.8078C36.5269 30.7822 36.471 30.7448 36.4239 30.6977C34.3652 28.642 29.7682 32.331 28.1705 33.9277C27.5774 34.521 26.7979 34.8178 26.0188 34.8178ZM57.5948 31.5649C57.5282 31.565 57.4622 31.5519 57.4006 31.5264C57.339 31.5009 57.2831 31.4634 57.2361 31.4162L43.6008 17.7801C43.5537 17.733 43.5163 17.677 43.4908 17.6155C43.4653 17.5539 43.4522 17.4879 43.4522 17.4213C43.4522 17.3547 43.4653 17.2887 43.4908 17.2271C43.5163 17.1656 43.5537 17.1096 43.6008 17.0625C43.6479 17.0154 43.7038 16.978 43.7654 16.9524C43.8269 16.9269 43.8929 16.9138 43.9596 16.9138C44.0262 16.9138 44.0922 16.9269 44.1538 16.9524C44.2153 16.978 44.2712 17.0154 44.3183 17.0625L57.9536 30.6987C58.0246 30.7696 58.073 30.86 58.0926 30.9585C58.1122 31.0569 58.1022 31.159 58.0638 31.2517C58.0254 31.3444 57.9603 31.4237 57.8768 31.4794C57.7934 31.5352 57.6952 31.5649 57.5948 31.5649ZM62.6189 29.4111C62.5522 29.4112 62.4862 29.3982 62.4246 29.3726C62.3631 29.3471 62.3072 29.3097 62.2601 29.2625L45.7535 12.7569C45.7064 12.7098 45.669 12.6539 45.6435 12.5923C45.618 12.5307 45.6049 12.4648 45.6049 12.3981C45.6049 12.3315 45.618 12.2655 45.6435 12.204C45.669 12.1424 45.7064 12.0865 45.7535 12.0394C45.8006 11.9922 45.8566 11.9548 45.9181 11.9293C45.9797 11.9038 46.0457 11.8906 46.1123 11.8906C46.179 11.8906 46.2449 11.9038 46.3065 11.9293C46.3681 11.9548 46.424 11.9922 46.4711 12.0394L62.9776 28.5449C63.0487 28.6159 63.097 28.7063 63.1166 28.8047C63.1363 28.9032 63.1262 29.0052 63.0878 29.0979C63.0494 29.1907 62.9843 29.2699 62.9009 29.3257C62.8174 29.3814 62.7193 29.4112 62.6189 29.4111Z" fill="#184383"/>
<path d="M43.9578 17.9286C43.8574 17.9287 43.7593 17.8989 43.6758 17.8432C43.5924 17.7875 43.5273 17.7082 43.4889 17.6155C43.4505 17.5227 43.4404 17.4207 43.46 17.3222C43.4797 17.2238 43.528 17.1334 43.599 17.0624L45.7518 14.9096C45.7989 14.8624 45.8548 14.8251 45.9164 14.7996C45.9779 14.7741 46.0439 14.761 46.1105 14.761C46.1772 14.761 46.2432 14.7741 46.3047 14.7996C46.3663 14.8251 46.4222 14.8624 46.4693 14.9096C46.5164 14.9567 46.5538 15.0126 46.5793 15.0742C46.6048 15.1357 46.6179 15.2017 46.6179 15.2683C46.6179 15.335 46.6048 15.4009 46.5793 15.4625C46.5538 15.5241 46.5164 15.58 46.4693 15.6271L44.3166 17.78C44.2695 17.8272 44.2136 17.8646 44.152 17.8902C44.0905 17.9157 44.0245 17.9287 43.9578 17.9286ZM57.5931 31.5648C57.5264 31.5649 57.4604 31.5518 57.3988 31.5263C57.3373 31.5008 57.2814 31.4634 57.2343 31.4161C57.1872 31.369 57.1497 31.3131 57.1242 31.2516C57.0987 31.19 57.0856 31.124 57.0856 31.0574C57.0856 30.9907 57.0987 30.9247 57.1242 30.8632C57.1497 30.8016 57.1872 30.7457 57.2343 30.6986L59.3871 28.5457C59.4342 28.4986 59.4901 28.4612 59.5517 28.4357C59.6133 28.4102 59.6792 28.3971 59.7459 28.3971C59.8125 28.3971 59.8785 28.4103 59.94 28.4358C60.0016 28.4613 60.0575 28.4987 60.1047 28.5458C60.1518 28.5929 60.1891 28.6489 60.2146 28.7104C60.2401 28.772 60.2533 28.838 60.2532 28.9046C60.2532 28.9712 60.2401 29.0372 60.2146 29.0988C60.1891 29.1603 60.1517 29.2163 60.1046 29.2634L57.9519 31.4161C57.9048 31.4633 57.8489 31.5008 57.7873 31.5263C57.7257 31.5518 57.6597 31.5649 57.5931 31.5648ZM46.1105 12.9055C46.0102 12.9055 45.912 12.8758 45.8286 12.82C45.7451 12.7643 45.68 12.685 45.6416 12.5923C45.6032 12.4996 45.5932 12.3975 45.6128 12.2991C45.6324 12.2006 45.6808 12.1102 45.7518 12.0393L57.6011 0.190111C57.6482 0.142997 57.7041 0.105624 57.7657 0.0801257C57.8272 0.0546276 57.8932 0.0415039 57.9598 0.0415039C58.0265 0.0415039 58.0925 0.0546276 58.154 0.0801257C58.2156 0.105624 58.2715 0.142997 58.3186 0.190111C58.3657 0.237225 58.4031 0.293158 58.4286 0.354716C58.4541 0.416274 58.4672 0.482251 58.4672 0.548881C58.4672 0.61551 58.4541 0.681487 58.4286 0.743045C58.4031 0.804603 58.3657 0.860536 58.3186 0.90765L46.4693 12.7568C46.4223 12.804 46.3664 12.8415 46.3048 12.867C46.2432 12.8925 46.1772 12.9056 46.1105 12.9055ZM62.6171 29.411C62.5505 29.4111 62.4845 29.3981 62.4229 29.3726C62.3613 29.347 62.3054 29.3096 62.2584 29.2624C62.2112 29.2153 62.1738 29.1594 62.1483 29.0978C62.1227 29.0362 62.1096 28.9702 62.1096 28.9036C62.1096 28.837 62.1227 28.771 62.1483 28.7094C62.1738 28.6479 62.2112 28.5919 62.2584 28.5448L64.1327 26.6725C64.1798 26.6254 64.2357 26.588 64.2973 26.5625C64.3589 26.537 64.4248 26.5239 64.4915 26.5239C64.5581 26.5239 64.6241 26.537 64.6856 26.5625C64.7472 26.588 64.8031 26.6254 64.8502 26.6725C64.8973 26.7196 64.9347 26.7756 64.9602 26.8371C64.9857 26.8987 64.9988 26.9647 64.9988 27.0313C64.9988 27.0979 64.9857 27.1639 64.9602 27.2255C64.9347 27.287 64.8973 27.343 64.8502 27.3901L62.9759 29.2624C62.9288 29.3096 62.8729 29.347 62.8113 29.3725C62.7498 29.398 62.6838 29.4111 62.6171 29.411ZM7.35684 32.998C7.25645 32.998 7.1583 32.9683 7.07481 32.9126C6.99132 32.8568 6.92624 32.7776 6.88781 32.6848C6.84939 32.5921 6.83934 32.4901 6.85894 32.3916C6.87855 32.2931 6.92692 32.2027 6.99794 32.1318L20.6341 18.4975C20.8323 18.2992 21.1535 18.2992 21.3516 18.4975C21.5498 18.6958 21.5499 19.0169 21.3516 19.2151L7.71561 32.8493C7.66853 32.8965 7.61261 32.9339 7.55104 32.9594C7.48947 32.9849 7.42348 32.998 7.35684 32.998ZM2.33368 30.8462C2.26704 30.8463 2.20103 30.8332 2.13946 30.8077C2.07789 30.7822 2.02197 30.7448 1.97491 30.6976C1.92776 30.6505 1.89035 30.5946 1.86483 30.533C1.83931 30.4714 1.82617 30.4055 1.82617 30.3388C1.82617 30.2722 1.83931 30.2062 1.86483 30.1446C1.89035 30.0831 1.92776 30.0271 1.97491 29.98L18.4815 13.4745C18.5286 13.4273 18.5845 13.3899 18.6461 13.3644C18.7076 13.3389 18.7736 13.3257 18.8403 13.3257C18.9069 13.3257 18.9729 13.3389 19.0344 13.3644C19.096 13.3899 19.1519 13.4273 19.199 13.4745C19.2462 13.5216 19.2836 13.5775 19.3091 13.6391C19.3346 13.7006 19.3478 13.7666 19.3478 13.8333C19.3478 13.8999 19.3346 13.9659 19.3091 14.0274C19.2836 14.089 19.2462 14.1449 19.199 14.192L2.69245 30.6976C2.6454 30.7448 2.58948 30.7822 2.52791 30.8077C2.46634 30.8332 2.40033 30.8463 2.33368 30.8462Z" fill="#184383"/>
<path d="M7.35804 32.9975C7.29138 32.9976 7.22537 32.9845 7.16378 32.959C7.10219 32.9335 7.04625 32.896 6.99915 32.8489L4.8464 30.6971C4.6481 30.4988 4.6481 30.1778 4.8464 29.9796C5.0447 29.7814 5.36577 29.7813 5.56394 29.9796L7.71681 32.1313C7.78783 32.2023 7.8362 32.2927 7.8558 32.3911C7.87541 32.4896 7.86538 32.5916 7.82697 32.6843C7.78856 32.7771 7.7235 32.8563 7.64003 32.9121C7.55655 32.9678 7.45842 32.9976 7.35804 32.9975ZM20.9942 19.3633C20.9276 19.3634 20.8615 19.3503 20.8 19.3248C20.7384 19.2992 20.6825 19.2618 20.6354 19.2146L18.4826 17.0619C18.4354 17.0148 18.398 16.9588 18.3725 16.8973C18.347 16.8357 18.3338 16.7697 18.3338 16.7031C18.3338 16.6364 18.347 16.5705 18.3725 16.5089C18.398 16.4473 18.4354 16.3914 18.4826 16.3443C18.5297 16.2972 18.5856 16.2598 18.6471 16.2342C18.7087 16.2087 18.7747 16.1956 18.8413 16.1956C18.908 16.1956 18.974 16.2087 19.0355 16.2342C19.0971 16.2598 19.153 16.2972 19.2001 16.3443L21.353 18.4971C21.4001 18.5442 21.4375 18.6001 21.4631 18.6616C21.4886 18.7232 21.5017 18.7892 21.5017 18.8558C21.5017 18.9225 21.4886 18.9885 21.4631 19.05C21.4375 19.1116 21.4001 19.1675 21.353 19.2146C21.3059 19.2618 21.25 19.2992 21.1884 19.3247C21.1269 19.3503 21.0609 19.3633 20.9942 19.3633ZM2.33489 30.8458C2.26824 30.8459 2.20224 30.8328 2.14066 30.8073C2.07909 30.7818 2.02317 30.7443 1.97612 30.6971L0.186082 28.9071C0.0918995 28.8117 0.0392676 28.683 0.0396768 28.549C0.0400861 28.4149 0.0935031 28.2865 0.188266 28.1917C0.283029 28.097 0.411441 28.0435 0.545467 28.0431C0.679493 28.0427 0.808248 28.0953 0.903621 28.1894L2.69366 29.9795C2.74081 30.0266 2.77822 30.0825 2.80374 30.144C2.82927 30.2056 2.8424 30.2716 2.8424 30.3382C2.8424 30.4049 2.82927 30.4709 2.80374 30.5324C2.77822 30.594 2.74081 30.6499 2.69366 30.697C2.64663 30.7442 2.59071 30.7817 2.52914 30.8072C2.46757 30.8328 2.40155 30.8459 2.33489 30.8458ZM18.8413 14.3402C18.7747 14.3403 18.7087 14.3272 18.6471 14.3017C18.5856 14.2762 18.5296 14.2387 18.4826 14.1916L5.20225 0.911139C5.00395 0.712838 5.00395 0.391774 5.20225 0.1936C5.40055 -0.00457397 5.72162 -0.00470093 5.91979 0.1936L19.2001 13.4739C19.2473 13.521 19.2847 13.5769 19.3102 13.6385C19.3357 13.7001 19.3488 13.766 19.3488 13.8327C19.3488 13.8993 19.3357 13.9653 19.3102 14.0269C19.2847 14.0884 19.2473 14.1444 19.2001 14.1915C19.1531 14.2387 19.0972 14.2761 19.0356 14.3017C18.974 14.3272 18.908 14.3403 18.8413 14.3402ZM1.52112 26.3925C1.32096 26.3931 1.12267 26.354 0.937728 26.2775C0.752785 26.2009 0.584859 26.0884 0.44367 25.9465C-0.148567 25.3514 -0.147551 24.386 0.444685 23.7938C1.01762 23.219 2.02411 23.2184 2.59794 23.7943C2.73959 23.9352 2.85186 24.1028 2.92825 24.2874C3.00463 24.472 3.0436 24.6699 3.04291 24.8697C3.04366 25.0698 3.00467 25.268 2.92819 25.4528C2.85172 25.6377 2.73929 25.8055 2.59743 25.9465C2.45652 26.0885 2.28881 26.201 2.10404 26.2776C1.91927 26.3541 1.72112 26.3932 1.52112 26.3925ZM1.52112 24.3627C1.38528 24.3627 1.25795 24.4152 1.16286 24.5108C1.06765 24.6062 1.01414 24.7355 1.01405 24.8703C1.01395 25.005 1.06728 25.1344 1.16235 25.2299C1.35164 25.4187 1.68819 25.4202 1.87938 25.2294C1.92671 25.1823 1.96422 25.1263 1.98973 25.0647C2.01525 25.003 2.02828 24.9369 2.02804 24.8701C2.02804 24.7343 1.97549 24.6069 1.87989 24.5113C1.83295 24.464 1.77705 24.4265 1.71546 24.4009C1.65386 24.3754 1.5878 24.3624 1.52112 24.3627Z" fill="#184383"/>
</g>
<defs>
<clipPath id="clip0_109_31815">
<rect width="65" height="65" fill="white"/>
</clipPath>
</defs>
</svg>
