<svg width="71" height="74" viewBox="0 0 71 74" fill="none" xmlns="http://www.w3.org/2000/svg">
<path d="M70.4272 74.0001H0.572614C0.256102 74.0001 0 73.7415 0 73.422V66.4848C0 61.5223 2.54584 59.6208 7.24343 57.8492C21.3511 52.5243 21.7582 50.51 21.7582 50.2976C21.7582 49.9781 22.0143 49.7195 22.3308 49.7195C22.6473 49.7195 22.9033 49.9781 22.9033 50.2976C22.9033 51.0836 22.9033 53.1735 7.6444 58.9321C3.241 60.5929 1.14537 62.1466 1.14537 66.4848V72.844H69.8549V66.4848C69.8549 62.1466 67.7591 60.5929 63.3563 58.9321C48.0967 53.1735 48.0967 51.0835 48.0967 50.2976C48.0967 49.9781 48.3528 49.7195 48.6693 49.7195C48.9858 49.7195 49.242 49.9781 49.242 50.2976C49.242 50.51 49.6491 52.5243 63.7577 57.8492C68.4547 59.6208 71 61.5223 71 66.4848V73.422C71 73.4979 70.9852 73.5731 70.9564 73.6432C70.9276 73.7134 70.8854 73.7771 70.8322 73.8308C70.779 73.8845 70.7159 73.9271 70.6464 73.9561C70.5769 73.9852 70.5024 74.0001 70.4272 74.0001Z" fill="#184383"/>
<path d="M35.5015 54.3449C27.7358 54.3449 14.8887 42.1855 14.8887 28.3301C14.8887 28.0105 15.1448 27.752 15.4613 27.752C15.5365 27.7519 15.611 27.7668 15.6804 27.7959C15.7499 27.8249 15.8131 27.8675 15.8662 27.9212C15.9194 27.9749 15.9615 28.0387 15.9903 28.1088C16.019 28.179 16.0338 28.2542 16.0338 28.3301C16.0338 41.1478 28.1788 53.1887 35.5015 53.1887C42.8242 53.1887 54.9692 41.1477 54.9692 28.3301C54.9692 28.0105 55.2253 27.752 55.5419 27.752C55.6171 27.7519 55.6915 27.7668 55.761 27.7959C55.8305 27.8249 55.8936 27.8675 55.9468 27.9212C56 27.9749 56.0421 28.0387 56.0709 28.1088C56.0996 28.179 56.1144 28.2542 56.1143 28.3301C56.1143 42.1855 43.2671 54.3449 35.5015 54.3449Z" fill="#184383"/>
<path d="M22.3304 50.8764C22.0139 50.8764 21.7578 50.6178 21.7578 50.2982V45.6734C21.7578 45.3538 22.0139 45.0952 22.3304 45.0952C22.6469 45.0952 22.9029 45.3538 22.9029 45.6734V50.2982C22.9029 50.6178 22.6469 50.8764 22.3304 50.8764ZM48.669 50.8764C48.3524 50.8764 48.0963 50.6178 48.0963 50.2982V45.6734C48.0963 45.3538 48.3524 45.0952 48.669 45.0952C48.9855 45.0952 49.2416 45.3538 49.2416 45.6734V50.2982C49.2416 50.6178 48.9855 50.8764 48.669 50.8764Z" fill="#184383"/>
<path d="M12.0257 28.7565C11.8739 28.7564 11.7284 28.6954 11.621 28.5871C11.5137 28.4787 11.4533 28.3317 11.4531 28.1785C11.4514 13.6387 19.33 7.61272 22.0783 5.95286L19.7477 4.54479C19.6189 4.46683 19.5255 4.34092 19.4876 4.19415C19.4498 4.04738 19.4705 3.89148 19.5453 3.75996C19.7858 3.33878 28.3387 0 36.6198 0C42.8577 0 47.7 1.82694 51.0125 5.42993C55.0229 9.7929 56.707 16.7337 56.0181 26.0602C56.0094 26.1818 55.9628 26.2975 55.8848 26.3906C55.8068 26.4837 55.7015 26.5495 55.5842 26.5783C55.4666 26.608 55.3427 26.599 55.2305 26.5527C55.1184 26.5064 55.0237 26.4252 54.9603 26.3209L49.4861 17.3636C32.3703 16.5099 12.5156 28.5543 12.3232 28.6718C12.2337 28.7272 12.1307 28.7565 12.0257 28.7565ZM21.3413 4.15975L23.5298 5.48197C23.62 5.53683 23.6935 5.61566 23.7424 5.70984C23.7912 5.80403 23.8134 5.90994 23.8067 6.01603C23.7999 6.12233 23.7641 6.22467 23.7033 6.31174C23.6426 6.39882 23.5591 6.46724 23.4623 6.50947C23.4354 6.52075 20.7112 7.73572 18.0273 10.9966C15.647 13.8872 12.8277 19.009 12.6118 27.1667C16.7222 24.8148 34.3855 15.2986 49.8496 16.2268C49.9415 16.2321 50.0307 16.2598 50.1098 16.3073C50.1888 16.3549 50.2554 16.421 50.3037 16.5001L54.9828 24.1544C55.3128 16.0801 53.6989 10.0518 50.1729 6.21722C47.0862 2.85936 42.5269 1.15658 36.6199 1.15658C30.1368 1.15629 23.8 3.24744 21.3413 4.15975Z" fill="#184383"/>
<path d="M35.5002 64.7507C27.9162 64.7507 23.354 61.8931 20.8625 59.4947C18.1438 56.8797 17.2453 54.2771 17.2085 54.1677C17.1842 54.0959 17.1741 54.02 17.1789 53.9443C17.1837 53.8686 17.2032 53.7946 17.2363 53.7266C17.2695 53.6585 17.3156 53.5977 17.372 53.5477C17.4284 53.4976 17.4941 53.4593 17.5652 53.4349C17.8627 53.3333 18.1891 53.4924 18.292 53.7939C18.4284 54.1937 21.793 63.5947 35.5002 63.5947C49.2455 63.5947 52.6753 53.8933 52.7088 53.795C52.8095 53.4924 53.136 53.3286 53.4346 53.4337C53.5058 53.4582 53.5715 53.4966 53.628 53.5468C53.6844 53.5969 53.7306 53.6578 53.7637 53.726C53.7968 53.7942 53.8163 53.8683 53.8211 53.9441C53.8258 54.0198 53.8157 54.0958 53.7914 54.1677C53.7556 54.2772 52.8564 56.8799 50.1379 59.4947C47.6464 61.8931 43.0846 64.7507 35.5002 64.7507Z" fill="#FBD826"/>
<path d="M35.5008 62.4383C22.8855 62.4383 19.1325 53.219 19.1001 53.1252C19.0503 52.9804 19.0594 52.8216 19.1254 52.6836C19.1915 52.5456 19.3091 52.4397 19.4524 52.3891C19.7493 52.2864 20.077 52.4433 20.1816 52.7447C20.2118 52.8271 23.6517 61.282 35.5009 61.282C47.1707 61.282 50.7907 52.8203 50.8242 52.7344C50.9382 52.4387 51.2691 52.2874 51.5622 52.4026C51.7031 52.456 51.8173 52.5635 51.8799 52.7016C51.9426 52.8397 51.9486 52.9973 51.8966 53.1398C51.8618 53.2326 47.9265 62.4383 35.5008 62.4383Z" fill="#184383"/>
<path d="M47.5249 31.2196H39.5087C38.5616 31.2196 37.791 30.4417 37.791 29.4852V27.1728C37.791 26.2165 38.5616 25.4385 39.5087 25.4385H47.5249C48.472 25.4385 49.2426 26.2165 49.2426 27.1728V29.4852C49.2426 30.4417 48.472 31.2196 47.5249 31.2196ZM39.5087 26.5948C39.1933 26.5948 38.9361 26.8533 38.9361 27.1729V29.4853C38.9361 29.8038 39.1933 30.0635 39.5087 30.0635H47.5249C47.6766 30.0632 47.8221 30.0022 47.9294 29.8938C48.0367 29.7854 48.0971 29.6386 48.0974 29.4853V27.1729C48.0974 26.8535 47.8403 26.5948 47.5249 26.5948H39.5087Z" fill="#184383"/>
<path d="M38.3641 28.9417H32.6371C32.3206 28.9417 32.0645 28.6831 32.0645 28.3635C32.0645 28.044 32.3206 27.7854 32.6371 27.7854H38.3641C38.6806 27.7854 38.9365 28.044 38.9365 28.3635C38.9365 28.6831 38.6806 28.9417 38.3641 28.9417Z" fill="#184383"/>
<path d="M31.4917 31.2196H23.4755C22.5284 31.2196 21.7578 30.4417 21.7578 29.4852V27.1728C21.7578 26.2165 22.5284 25.4385 23.4755 25.4385H31.4917C32.4388 25.4385 33.2094 26.2165 33.2094 27.1728V29.4852C33.2094 30.4417 32.4388 31.2196 31.4917 31.2196ZM23.4755 26.5948C23.3236 26.5948 23.178 26.6557 23.0706 26.7641C22.9632 26.8725 22.9029 27.0196 22.9029 27.1729V29.4853C22.9029 29.8038 23.1596 30.0635 23.4755 30.0635H31.4917C31.6435 30.0633 31.789 30.0023 31.8963 29.8939C32.0036 29.7855 32.064 29.6386 32.0642 29.4853V27.1729C32.0642 27.0196 32.0038 26.8726 31.8965 26.7642C31.7891 26.6557 31.6435 26.5948 31.4917 26.5948H23.4755Z" fill="#184383"/>
</svg>
