<svg width="73" height="73" viewBox="0 0 73 73" fill="none" xmlns="http://www.w3.org/2000/svg">
<g clip-path="url(#clip0_109_31767)">
<path d="M71.8539 72.9951H58.168C57.8527 72.9951 57.5977 72.74 57.5977 72.4248V70.5415C57.5977 69.1436 58.5166 68.6827 59.3773 68.3607C60.3531 67.9943 61.3965 67.3906 61.6025 67.1367C61.6303 66.9981 61.7086 66.8748 61.8221 66.7906C61.9357 66.7064 62.0764 66.6674 62.2171 66.6812C62.3578 66.6949 62.4884 66.7604 62.5835 66.8649C62.6786 66.9694 62.7316 67.1056 62.732 67.2469C62.732 68.2425 60.4712 69.1682 59.7782 69.4277C58.8819 69.764 58.7381 69.989 58.7381 70.5415V71.8546H71.2833V70.5415C71.2833 69.989 71.1396 69.7641 70.2418 69.4288C69.7486 69.2439 67.2917 68.2705 67.2917 67.2469C67.2916 67.1721 67.3064 67.0979 67.335 67.0287C67.3636 66.9595 67.4056 66.8967 67.4585 66.8437C67.5115 66.7908 67.5743 66.7488 67.6435 66.7201C67.7127 66.6915 67.7868 66.6767 67.8617 66.6768C67.9939 66.6768 68.1219 66.7227 68.2241 66.8066C68.3263 66.8904 68.3962 67.0071 68.422 67.1367C68.6259 67.3918 69.6685 67.9953 70.6417 68.3607C71.5039 68.6827 72.4236 69.1425 72.4236 70.5415V72.4248C72.4238 72.4997 72.4091 72.5738 72.3805 72.643C72.3519 72.7122 72.31 72.7751 72.2571 72.8281C72.2041 72.8811 72.1413 72.9231 72.0721 72.9518C72.0029 72.9804 71.9288 72.9951 71.8539 72.9951Z" fill="#184383"/>
<path d="M65.0128 68.4331C63.0637 68.4331 60.4531 65.73 60.4531 62.9668C60.4531 60.2315 62.4133 58.1689 65.0128 58.1689C67.6557 58.1689 69.5747 60.187 69.5747 62.9668C69.5747 65.73 66.9628 68.4331 65.0128 68.4331ZM65.0128 59.3093C63.0315 59.3093 61.5935 60.8474 61.5935 62.9668C61.5935 65.2902 63.8867 67.2927 65.0128 67.2927C66.1397 67.2927 68.4341 65.2902 68.4341 62.9668C68.4341 60.8474 66.9952 59.3093 65.0128 59.3093Z" fill="#184383"/>
<path d="M67.8642 67.8177C67.7893 67.8177 67.7152 67.803 67.646 67.7743C67.5768 67.7457 67.5139 67.7037 67.461 67.6507C67.4081 67.5978 67.3661 67.5349 67.3375 67.4657C67.3088 67.3965 67.2941 67.3224 67.2942 67.2475V66.0257C67.2941 65.9509 67.3088 65.8767 67.3375 65.8075C67.3661 65.7383 67.4081 65.6754 67.461 65.6225C67.5139 65.5695 67.5768 65.5275 67.646 65.4989C67.7152 65.4703 67.7893 65.4555 67.8642 65.4556C68.1795 65.4556 68.4345 65.7105 68.4345 66.0257V67.2475C68.4346 67.3224 68.4198 67.3966 68.3912 67.4658C68.3625 67.535 68.3205 67.5978 68.2676 67.6508C68.2146 67.7037 68.1517 67.7457 68.0825 67.7744C68.0133 67.803 67.9391 67.8177 67.8642 67.8177ZM62.1641 67.8177C61.8488 67.8177 61.5938 67.5627 61.5938 67.2475V66.0257C61.5938 65.7105 61.8488 65.4556 62.1641 65.4556C62.4793 65.4556 62.7344 65.7105 62.7344 66.0257V67.2475C62.7344 67.3224 62.7197 67.3966 62.6911 67.4658C62.6624 67.535 62.6204 67.5978 62.5674 67.6508C62.5145 67.7037 62.4516 67.7457 62.3824 67.7744C62.3132 67.803 62.239 67.8177 62.1641 67.8177ZM14.8321 72.9957H1.14648C0.831244 72.9957 0.576172 72.7406 0.576172 72.4254V70.542C0.576172 69.1442 1.49552 68.6833 2.35769 68.3613C3.33221 67.9949 4.37588 67.3912 4.58076 67.1373C4.6064 67.0077 4.6762 66.891 4.77825 66.8071C4.8803 66.7233 5.00829 66.6774 5.14038 66.6773C5.45562 66.6773 5.71069 66.9324 5.71069 67.2475C5.71069 68.2443 3.45026 69.1687 2.75819 69.4282C1.86052 69.7646 1.7168 69.9905 1.7168 70.542V71.8552H14.2621V70.542C14.2621 69.9895 14.1184 69.7647 13.2207 69.4294C12.7274 69.2444 10.2715 68.2711 10.2715 67.2475C10.2714 67.1726 10.2862 67.0984 10.3148 67.0292C10.3435 66.96 10.3855 66.8971 10.4385 66.8442C10.4914 66.7912 10.5543 66.7492 10.6235 66.7206C10.6927 66.692 10.7669 66.6773 10.8418 66.6773C10.974 66.6774 11.1021 66.7234 11.2042 66.8075C11.3063 66.8916 11.376 67.0085 11.4014 67.1383C11.6059 67.3922 12.6477 67.9959 13.6205 68.3612C14.482 68.6831 15.4026 69.1429 15.4026 70.5419V72.4252C15.4026 72.5001 15.3879 72.5743 15.3592 72.6435C15.3305 72.7128 15.2885 72.7757 15.2355 72.8286C15.1826 72.8816 15.1197 72.9236 15.0505 72.9523C14.9812 72.9809 14.907 72.9957 14.8321 72.9957Z" fill="#184383"/>
<path d="M7.98852 68.4331C6.03948 68.4331 3.42773 65.73 3.42773 62.9668C3.42773 60.2315 5.38847 58.1689 7.98852 58.1689C10.6321 58.1689 12.5505 60.187 12.5505 62.9668C12.5505 65.73 9.93814 68.4331 7.98852 68.4331ZM7.98852 59.3093C6.00669 59.3093 4.56822 60.8474 4.56822 62.9668C4.56822 65.2902 6.86244 67.2927 7.98852 67.2927C9.11503 67.2927 11.41 65.2902 11.41 62.9668C11.41 60.8474 9.97093 59.3093 7.98852 59.3093Z" fill="#184383"/>
<path d="M10.8401 67.817C10.5248 67.817 10.2698 67.562 10.2698 67.2468V66.0251C10.2697 65.9502 10.2845 65.876 10.3131 65.8068C10.3418 65.7376 10.3838 65.6747 10.4367 65.6217C10.4897 65.5688 10.5526 65.5268 10.6218 65.4982C10.691 65.4695 10.7652 65.4548 10.8401 65.4549C10.915 65.4548 10.9891 65.4696 11.0583 65.4982C11.1275 65.5268 11.1904 65.5688 11.2433 65.6218C11.2963 65.6748 11.3383 65.7376 11.3669 65.8068C11.3956 65.876 11.4103 65.9502 11.4103 66.0251V67.2468C11.4103 67.3217 11.3956 67.3959 11.3669 67.465C11.3383 67.5342 11.2963 67.5971 11.2433 67.6501C11.1904 67.703 11.1275 67.745 11.0583 67.7736C10.9891 67.8023 10.915 67.817 10.8401 67.817ZM5.13867 67.817C4.82343 67.817 4.56836 67.562 4.56836 67.2468V66.0251C4.56836 65.7098 4.82343 65.4549 5.13867 65.4549C5.45391 65.4549 5.70898 65.7098 5.70898 66.0251V67.2468C5.70902 67.3217 5.6943 67.3959 5.66565 67.4651C5.637 67.5343 5.59499 67.5972 5.54202 67.6501C5.48905 67.7031 5.42616 67.7451 5.35696 67.7737C5.28775 67.8023 5.21357 67.817 5.13867 67.817ZM71.8546 14.8307H58.1686C57.8534 14.8307 57.5983 14.5756 57.5983 14.2603V12.377C57.5983 10.9793 58.5172 10.5182 59.378 10.1963C60.3538 9.82987 61.3972 9.2262 61.6032 8.97241C61.631 8.83381 61.7092 8.71047 61.8228 8.6263C61.9363 8.54213 62.0771 8.50313 62.2178 8.51685C62.3584 8.53058 62.489 8.59606 62.5842 8.7006C62.6793 8.80513 62.7322 8.94127 62.7327 9.08262C62.7327 10.0782 60.4718 11.0039 59.7789 11.2634C58.8825 11.5997 58.7388 11.8248 58.7388 12.3772V13.6903H71.284V12.3772C71.284 11.8248 71.1402 11.5998 70.2424 11.2645C69.7492 11.0797 67.2923 10.1062 67.2923 9.08262C67.2923 9.00775 67.307 8.9336 67.3357 8.86441C67.3643 8.79523 67.4063 8.73237 67.4592 8.67942C67.5121 8.62647 67.575 8.58447 67.6442 8.55582C67.7133 8.52717 67.7875 8.51243 67.8624 8.51245C67.9945 8.51254 68.1226 8.55841 68.2248 8.64227C68.3269 8.72613 68.3969 8.84279 68.4227 8.97241C68.6266 9.22748 69.6691 9.83101 70.6424 10.1963C71.5045 10.5182 72.4243 10.9782 72.4243 12.377V14.2603C72.4246 14.5754 72.1695 14.8307 71.8546 14.8307Z" fill="#184383"/>
<path d="M65.0128 10.2688C63.0637 10.2688 60.4531 7.56584 60.4531 4.80253C60.4531 2.06717 62.4133 0.00463867 65.0128 0.00463867C67.6557 0.00463867 69.5747 2.02269 69.5747 4.80253C69.5747 7.56584 66.9628 10.2688 65.0128 10.2688ZM65.0128 1.14512C63.0315 1.14512 61.5935 2.68311 61.5935 4.80253C61.5935 7.12584 63.8867 9.12835 65.0128 9.12835C66.1397 9.12835 68.4341 7.12584 68.4341 4.80253C68.4341 2.68311 66.9952 1.14512 65.0128 1.14512Z" fill="#184383"/>
<path d="M67.8642 9.65364C67.7893 9.65366 67.7152 9.63892 67.646 9.61026C67.5768 9.5816 67.5139 9.53959 67.461 9.48662C67.4081 9.43366 67.3661 9.37078 67.3375 9.30157C67.3088 9.23237 67.2941 9.15821 67.2942 9.08332V7.86157C67.2942 7.54647 67.5493 7.29126 67.8642 7.29126C68.1795 7.29126 68.4345 7.54633 68.4345 7.86157V9.08332C68.4345 9.39856 68.1795 9.65364 67.8642 9.65364ZM62.1641 9.65364C61.8488 9.65364 61.5938 9.39856 61.5938 9.08332V7.86157C61.5938 7.54647 61.8488 7.29126 62.1641 7.29126C62.4793 7.29126 62.7344 7.54633 62.7344 7.86157V9.08332C62.7344 9.39856 62.4793 9.65364 62.1641 9.65364ZM14.8321 14.8315H1.14648C0.831244 14.8315 0.576172 14.5764 0.576172 14.2612V12.3779C0.576172 10.9802 1.49552 10.5191 2.35769 10.1971C3.33221 9.83072 4.37588 9.22704 4.58076 8.97325C4.6064 8.84367 4.6762 8.72699 4.77825 8.64312C4.8803 8.55924 5.00829 8.51336 5.14038 8.5133C5.45562 8.5133 5.71069 8.76837 5.71069 9.08347C5.71069 10.0802 3.45026 11.0047 2.75819 11.2642C1.86052 11.6005 1.7168 11.8267 1.7168 12.378V13.6912H14.2621V12.378C14.2621 11.8257 14.1184 11.6007 13.2207 11.2653C12.7274 11.0806 10.2715 10.107 10.2715 9.08347C10.2714 9.00857 10.2862 8.9344 10.3148 8.8652C10.3435 8.79599 10.3855 8.73312 10.4385 8.68016C10.4914 8.62721 10.5543 8.58521 10.6235 8.55658C10.6927 8.52795 10.7669 8.51324 10.8418 8.5133C10.9741 8.51341 11.1022 8.55945 11.2042 8.64356C11.3063 8.72766 11.376 8.8446 11.4014 8.97439C11.6059 9.22833 12.6477 9.832 13.6205 10.1973C14.482 10.5192 15.4026 10.9792 15.4026 12.378V14.2613C15.4026 14.3362 15.3878 14.4104 15.3591 14.4796C15.3304 14.5488 15.2884 14.6116 15.2354 14.6646C15.1825 14.7175 15.1196 14.7595 15.0504 14.7881C14.9812 14.8168 14.907 14.8315 14.8321 14.8315Z" fill="#184383"/>
<path d="M7.98852 10.2688C6.03948 10.2688 3.42773 7.56584 3.42773 4.80253C3.42773 2.06717 5.38847 0.00463867 7.98852 0.00463867C10.6321 0.00463867 12.5505 2.02269 12.5505 4.80253C12.5505 7.56584 9.93814 10.2688 7.98852 10.2688ZM7.98852 1.14512C6.00669 1.14512 4.56822 2.68311 4.56822 4.80253C4.56822 7.12584 6.86244 9.12835 7.98852 9.12835C9.11503 9.12835 11.41 7.12584 11.41 4.80253C11.41 2.68311 9.97093 1.14512 7.98852 1.14512Z" fill="#184383"/>
<path d="M10.8401 9.65364C10.5248 9.65364 10.2698 9.39856 10.2698 9.08332V7.86157C10.2698 7.54647 10.5248 7.29126 10.8401 7.29126C10.915 7.29122 10.9892 7.30595 11.0584 7.3346C11.1276 7.36325 11.1904 7.40526 11.2434 7.45823C11.2963 7.51119 11.3383 7.57408 11.367 7.64329C11.3956 7.7125 11.4103 7.78667 11.4103 7.86157V9.08332C11.4103 9.39856 11.1552 9.65364 10.8401 9.65364ZM5.13867 9.65364C4.82343 9.65364 4.56836 9.39856 4.56836 9.08332V7.86157C4.56836 7.54647 4.82343 7.29126 5.13867 7.29126C5.45391 7.29126 5.70898 7.54633 5.70898 7.86157V9.08332C5.70898 9.39856 5.45391 9.65364 5.13867 9.65364Z" fill="#184383"/>
<path d="M22.8164 52.4609C22.5013 52.4609 22.2461 52.2058 22.2461 51.8907V48.0906C22.2461 45.8675 23.4272 44.9911 25.4682 44.228C26.5368 43.8294 28.1089 43.227 29.4136 42.6042C29.4812 42.5718 29.5544 42.5531 29.6292 42.5491C29.704 42.5451 29.7788 42.5559 29.8494 42.5808C29.92 42.6057 29.985 42.6444 30.0407 42.6944C30.0964 42.7445 30.1416 42.8051 30.1739 42.8727C30.3097 43.1578 30.1894 43.4975 29.9048 43.6333C28.5593 44.2759 26.9562 44.8907 25.867 45.2974C23.9195 46.0247 23.3867 46.6249 23.3867 48.0906V51.8907C23.3867 51.9656 23.372 52.0398 23.3433 52.109C23.3146 52.1782 23.2726 52.241 23.2197 52.294C23.1667 52.3469 23.1038 52.3889 23.0346 52.4176C22.9655 52.4462 22.8913 52.4609 22.8164 52.4609ZM50.1867 52.4609C49.8715 52.4609 49.6164 52.2058 49.6164 51.8907V48.0906C49.6164 46.6249 49.0829 46.0247 47.1361 45.2974C46.0515 44.8919 44.4519 44.2782 43.0954 43.6289C42.959 43.5636 42.8541 43.4468 42.8037 43.3042C42.7534 43.1615 42.7617 43.0047 42.827 42.8683C42.9628 42.582 43.3049 42.465 43.5878 42.5998C44.903 43.2303 46.47 43.8317 47.5349 44.228C49.5753 44.9911 50.7569 45.8675 50.7569 48.0906V51.8907C50.7569 51.9656 50.7422 52.0398 50.7135 52.109C50.6849 52.1782 50.6429 52.241 50.59 52.294C50.537 52.347 50.4741 52.389 50.4049 52.4176C50.3357 52.4462 50.2616 52.461 50.1867 52.4609ZM36.4754 43.3372C33.2527 43.3372 27.9218 38.2082 27.9218 32.3645C27.9218 32.0494 28.1769 31.7942 28.492 31.7942C28.8073 31.7942 29.0623 32.0493 29.0623 32.3645C29.0623 37.4343 33.6871 42.1966 36.4754 42.1966C39.2631 42.1966 43.8875 37.4343 43.8875 32.3645C43.8875 32.0494 44.1425 31.7942 44.4575 31.7942C44.7727 31.7942 45.0278 32.0493 45.0278 32.3645C45.0278 38.2082 39.6975 43.3372 36.4754 43.3372ZM44.424 31.7764C44.3301 31.7763 44.2378 31.7531 44.1551 31.7089C44.0723 31.6646 44.0018 31.6005 43.9498 31.5225L41.9216 28.4808C41.0138 28.8095 38.8375 29.4954 36.4752 29.4954C34.1035 29.4954 31.8794 28.8049 30.9605 28.4774L28.9307 31.5225C28.8656 31.6208 28.7714 31.6964 28.6613 31.7387C28.5512 31.781 28.4306 31.788 28.3164 31.7586C28.2022 31.7298 28.0997 31.6665 28.0231 31.5771C27.9464 31.4878 27.8993 31.3769 27.8882 31.2597C27.5896 28.0642 28.2774 25.5228 29.9325 23.7052C32.3165 21.0879 36.1834 20.5388 39.0079 20.5388C40.8879 20.5388 42.2477 20.7805 42.3044 20.7906C42.5539 20.8351 42.7433 21.0401 42.7701 21.2918C42.7969 21.5434 42.6543 21.783 42.4203 21.8798C41.9105 22.0892 41.5763 22.3888 41.4248 22.7709C41.2767 23.144 41.3168 23.5428 41.3792 23.8167C41.9607 23.8401 43.1322 24.0271 44.0245 25.0685C45.1091 26.337 45.4333 28.4309 44.9877 31.2943C44.9698 31.4078 44.9182 31.5132 44.8395 31.5968C44.7608 31.6805 44.6587 31.7385 44.5466 31.7633C44.5063 31.7719 44.4652 31.7763 44.424 31.7764ZM42.143 27.2145C42.3291 27.2145 42.5094 27.3057 42.6175 27.4684L44.0243 29.579C44.1123 27.8706 43.8183 26.583 43.1577 25.8101C42.5194 25.0661 41.6832 24.9546 41.2411 24.9546C41.1297 24.9546 41.0584 24.9624 41.0439 24.9634C40.7955 24.9935 40.5516 24.8621 40.4479 24.6349C40.4268 24.5882 39.9244 23.4621 40.3643 22.3507C40.4492 22.1345 40.5648 21.9315 40.7074 21.7482C38.2816 21.5511 33.398 21.5935 30.7755 24.4735C29.65 25.7087 29.0454 27.3647 28.9691 29.4085L30.2627 27.4684C30.3353 27.3583 30.4441 27.277 30.5702 27.2384C30.6963 27.1997 30.8319 27.2063 30.9538 27.2568C30.9806 27.2679 33.6663 28.3549 36.4752 28.3549C39.2886 28.3549 41.8959 27.2702 41.9216 27.259C41.9917 27.2297 42.067 27.2146 42.143 27.2145Z" fill="#184383"/>
<path d="M44.4575 32.9347C44.3826 32.9347 44.3085 32.92 44.2393 32.8913C44.1701 32.8626 44.1072 32.8206 44.0543 32.7677C44.0014 32.7147 43.9594 32.6518 43.9308 32.5826C43.9021 32.5134 43.8874 32.4392 43.8875 32.3644V31.2061C43.8875 30.8908 44.1426 30.6357 44.4575 30.6357C44.7728 30.6357 45.0278 30.8908 45.0278 31.2061V32.3644C45.0278 32.6796 44.7728 32.9347 44.4575 32.9347ZM28.492 32.9347C28.4171 32.9347 28.343 32.92 28.2738 32.8913C28.2046 32.8627 28.1417 32.8207 28.0887 32.7677C28.0358 32.7147 27.9938 32.6519 27.9652 32.5826C27.9365 32.5134 27.9218 32.4393 27.9219 32.3644V31.2061C27.9219 30.8908 28.1769 30.6357 28.492 30.6357C28.8073 30.6357 29.0624 30.8908 29.0624 31.2061V32.3644C29.0624 32.6796 28.8073 32.9347 28.492 32.9347ZM34.2389 45.618C34.0878 45.6178 33.9428 45.5578 33.8357 45.451L30.4143 42.0294C30.3112 41.9217 30.2544 41.7779 30.256 41.6288C30.2577 41.4798 30.3176 41.3372 30.4231 41.2318C30.5285 41.1264 30.671 41.0665 30.8201 41.0649C30.9692 41.0632 31.113 41.1201 31.2207 41.2232L34.3526 44.355L36.2821 43.3961C36.5628 43.258 36.9063 43.3715 37.0462 43.6534C37.0795 43.7205 37.0994 43.7936 37.1045 43.8684C37.1096 43.9432 37.1 44.0182 37.0761 44.0893C37.0522 44.1603 37.0145 44.226 36.9652 44.2825C36.9159 44.339 36.856 44.3852 36.7888 44.4185L34.4923 45.559C34.4136 45.5981 34.3268 45.6183 34.2389 45.618Z" fill="#184383"/>
<path d="M38.799 45.6179C38.711 45.618 38.6241 45.5978 38.5451 45.5589L36.248 44.4184C36.1809 44.3851 36.1209 44.3389 36.0717 44.2824C36.0224 44.2259 35.9847 44.1602 35.9608 44.0892C35.9369 44.0181 35.9273 43.9431 35.9324 43.8683C35.9375 43.7935 35.9573 43.7205 35.9907 43.6533C36.1304 43.3715 36.4736 43.2581 36.7547 43.396L38.6854 44.355L41.8174 41.2231C41.8704 41.1702 41.9332 41.1282 42.0024 41.0995C42.0715 41.0709 42.1457 41.0561 42.2205 41.0562C42.2954 41.0562 42.3695 41.0709 42.4387 41.0996C42.5078 41.1282 42.5707 41.1702 42.6236 41.2232C42.6766 41.2761 42.7185 41.3389 42.7472 41.4081C42.7758 41.4773 42.7906 41.5514 42.7906 41.6263C42.7905 41.7011 42.7758 41.7753 42.7471 41.8444C42.7185 41.9136 42.6765 41.9764 42.6235 42.0294L39.2022 45.451C39.0953 45.5579 38.9503 45.6179 38.799 45.6179ZM36.5616 46.7584C36.4866 46.7585 36.4125 46.7438 36.3433 46.7151C36.2741 46.6864 36.2112 46.6443 36.1583 46.5913L35.0179 45.451C34.9634 45.3984 34.9199 45.3354 34.8901 45.2658C34.8602 45.1963 34.8444 45.1214 34.8438 45.0457C34.8431 44.97 34.8575 44.8949 34.8862 44.8248C34.9149 44.7547 34.9572 44.691 35.0108 44.6375C35.0643 44.5839 35.128 44.5416 35.1981 44.5129C35.2682 44.4842 35.3433 44.4698 35.419 44.4704C35.4947 44.4711 35.5696 44.4868 35.6392 44.5167C35.7087 44.5466 35.7717 44.5901 35.8243 44.6445L36.9648 45.785C37.0446 45.8647 37.099 45.9663 37.121 46.077C37.1431 46.1876 37.1318 46.3023 37.0886 46.4065C37.0454 46.5107 36.9723 46.5998 36.8785 46.6625C36.7847 46.7251 36.6744 46.7585 36.5616 46.7584Z" fill="#184383"/>
<path d="M36.5626 46.7589C36.4498 46.759 36.3395 46.7256 36.2457 46.663C36.1519 46.6003 36.0788 46.5113 36.0356 46.407C35.9924 46.3028 35.9811 46.1881 36.0032 46.0775C36.0252 45.9669 36.0796 45.8653 36.1594 45.7855L37.3001 44.6451C37.4079 44.5426 37.5515 44.4864 37.7002 44.4883C37.8489 44.4903 37.991 44.5502 38.0961 44.6554C38.2013 44.7606 38.2612 44.9027 38.2631 45.0514C38.2649 45.2001 38.2087 45.3437 38.1062 45.4515L36.9659 46.5918C36.913 46.6449 36.8501 46.687 36.7809 46.7156C36.7117 46.7443 36.6375 46.759 36.5626 46.7589Z" fill="#184383"/>
<path d="M35.4225 51.32C35.3422 51.3201 35.2628 51.3032 35.1895 51.2705C35.1162 51.2377 35.0506 51.1899 34.9971 51.1301C34.9435 51.0703 34.9032 50.9998 34.8787 50.9233C34.8542 50.8469 34.8462 50.7661 34.8551 50.6863L35.4254 45.5542C35.4605 45.2424 35.7512 45.0252 36.0551 45.0509C36.1296 45.0592 36.2018 45.082 36.2674 45.1182C36.333 45.1544 36.3909 45.2031 36.4377 45.2616C36.4845 45.3202 36.5193 45.3874 36.5402 45.4594C36.561 45.5313 36.5675 45.6067 36.5592 45.6812L35.9888 50.8133C35.9731 50.9526 35.9067 51.0812 35.8023 51.1746C35.6978 51.2681 35.5627 51.3198 35.4225 51.32Z" fill="#184383"/>
<path d="M37.7022 51.3204C37.5622 51.32 37.4271 51.2682 37.3227 51.1747C37.2184 51.0813 37.152 50.9527 37.1364 50.8135L36.566 45.6814C36.5577 45.6069 36.5641 45.5315 36.5849 45.4595C36.6058 45.3875 36.6406 45.3203 36.6874 45.2617C36.7342 45.2032 36.7921 45.1545 36.8577 45.1183C36.9234 45.0822 36.9956 45.0593 37.0701 45.0511C37.392 45.0242 37.6655 45.2427 37.7 45.5544L38.27 50.6865C38.2788 50.7663 38.2707 50.8471 38.2462 50.9235C38.2217 51 38.1814 51.0705 38.1278 51.1303C38.0742 51.1901 38.0086 51.238 37.9353 51.2707C37.862 51.3035 37.7826 51.3204 37.7022 51.3204Z" fill="#184383"/>
<path d="M50.1867 52.461H22.8164C22.5013 52.461 22.2461 52.206 22.2461 51.8909C22.2461 51.5756 22.5012 51.3206 22.8164 51.3206H50.1868C50.2617 51.3205 50.3359 51.3352 50.4051 51.3639C50.4743 51.3925 50.5372 51.4346 50.5901 51.4875C50.643 51.5405 50.685 51.6034 50.7136 51.6726C50.7423 51.7418 50.7569 51.816 50.7569 51.8909C50.7569 51.9658 50.7422 52.0399 50.7135 52.1091C50.6849 52.1783 50.6429 52.2412 50.59 52.2941C50.537 52.3471 50.4741 52.3891 50.4049 52.4177C50.3357 52.4464 50.2616 52.4611 50.1867 52.461Z" fill="#184383"/>
<path d="M14.8202 60.45C14.6694 60.45 14.5246 60.3904 14.4176 60.284C14.3105 60.177 14.2502 60.0319 14.25 59.8805C14.2498 59.7291 14.3096 59.5838 14.4164 59.4765L20.1033 53.7742C20.2103 53.6676 20.3552 53.6076 20.5062 53.6074C20.6573 53.6072 20.8023 53.6667 20.9096 53.7731C21.0167 53.88 21.077 54.0252 21.0772 54.1765C21.0774 54.3279 21.0175 54.4732 20.9107 54.5805L15.224 60.2829C15.171 60.336 15.1081 60.3781 15.0388 60.4067C14.9695 60.4354 14.8952 60.4501 14.8202 60.45Z" fill="#FBD826"/>
<path d="M15.9708 60.4502H14.8203C14.5051 60.4502 14.25 60.1951 14.25 59.8799C14.25 59.5646 14.5051 59.3096 14.8203 59.3096H15.9708C16.2859 59.3096 16.5409 59.5646 16.5409 59.8799C16.5409 60.1951 16.2859 60.4502 15.9708 60.4502Z" fill="#FBD826"/>
<path d="M14.832 60.4344C14.5168 60.4344 14.2617 60.1793 14.2617 59.8641V58.7391C14.2617 58.4239 14.5168 58.1689 14.832 58.1689C15.1473 58.1689 15.4023 58.4239 15.4023 58.7391V59.8641C15.4023 60.1793 15.1473 60.4344 14.832 60.4344Z" fill="#FBD826"/>
<path d="M58.1693 60.4501C58.0943 60.4502 58.0199 60.4354 57.9505 60.4068C57.8811 60.3781 57.8181 60.336 57.765 60.283L52.0783 54.5806C51.9716 54.4732 51.9119 54.3279 51.9121 54.1766C51.9123 54.0253 51.9725 53.8802 52.0794 53.7731C52.3021 53.5526 52.6642 53.5514 52.8867 53.7743L58.5737 59.4765C58.6803 59.5839 58.7401 59.7292 58.7398 59.8806C58.7396 60.0319 58.6795 60.177 58.5725 60.2841C58.4653 60.3905 58.3204 60.4502 58.1693 60.4501Z" fill="#FBD826"/>
<path d="M58.1689 60.4502H57.0195C56.7043 60.4502 56.4492 60.1951 56.4492 59.8799C56.4492 59.5646 56.7043 59.3096 57.0195 59.3096H58.1689C58.4841 59.3096 58.7392 59.5646 58.7392 59.8799C58.7392 60.1951 58.4841 60.4502 58.1689 60.4502Z" fill="#FBD826"/>
<path d="M58.1602 60.4344C57.8449 60.4344 57.5898 60.1793 57.5898 59.8641V58.7391C57.5898 58.4239 57.8449 58.1689 58.1602 58.1689C58.4754 58.1689 58.7305 58.4239 58.7305 58.7391V59.8641C58.7305 60.1793 58.4754 60.4344 58.1602 60.4344Z" fill="#FBD826"/>
<path d="M20.5071 23.9549C20.4321 23.9551 20.3578 23.9404 20.2885 23.9117C20.2192 23.883 20.1563 23.8409 20.1033 23.7878L14.4164 18.0854C14.3096 17.9781 14.2498 17.8329 14.25 17.6815C14.2502 17.5301 14.3105 17.385 14.4176 17.278C14.5249 17.1717 14.6699 17.1121 14.821 17.1123C14.9721 17.1125 15.117 17.1725 15.224 17.2792L20.9107 22.9814C21.0176 23.0887 21.0775 23.234 21.0773 23.3854C21.0771 23.5369 21.0168 23.682 20.9096 23.789C20.8027 23.8954 20.6579 23.9551 20.5071 23.9549Z" fill="#FBD826"/>
<path d="M15.9708 18.2528H14.8203C14.5051 18.2528 14.25 17.9977 14.25 17.6825C14.25 17.6076 14.2647 17.5334 14.2933 17.4642C14.322 17.395 14.364 17.3321 14.417 17.2792C14.4699 17.2262 14.5328 17.1842 14.602 17.1556C14.6712 17.127 14.7454 17.1122 14.8203 17.1123H15.9708C16.0457 17.1123 16.1198 17.127 16.189 17.1556C16.2582 17.1843 16.3211 17.2263 16.374 17.2792C16.427 17.3322 16.469 17.395 16.4976 17.4642C16.5263 17.5334 16.541 17.6076 16.5409 17.6825C16.5409 17.9977 16.2859 18.2528 15.9708 18.2528Z" fill="#FBD826"/>
<path d="M14.832 19.3924C14.5168 19.3924 14.2617 19.1373 14.2617 18.8221V17.6971C14.2617 17.382 14.5168 17.127 14.832 17.127C15.1473 17.127 15.4023 17.382 15.4023 17.6971V18.8221C15.4023 19.1373 15.1473 19.3924 14.832 19.3924Z" fill="#FBD826"/>
<path d="M52.4825 23.9549C52.3315 23.9549 52.1865 23.8953 52.0793 23.7889C51.9724 23.6818 51.9123 23.5367 51.9121 23.3854C51.9119 23.2341 51.9716 23.0888 52.0781 22.9814L57.7649 17.2791C57.9876 17.0564 58.3497 17.0574 58.5724 17.278C58.6793 17.3851 58.7394 17.5301 58.7396 17.6814C58.7398 17.8327 58.6801 17.978 58.5736 18.0854L52.8866 23.7878C52.8335 23.8409 52.7705 23.8829 52.7012 23.9116C52.6318 23.9403 52.5575 23.955 52.4825 23.9549Z" fill="#FBD826"/>
<path d="M58.1689 18.2528H57.0195C56.7043 18.2528 56.4492 17.9977 56.4492 17.6825C56.4492 17.6076 56.4639 17.5334 56.4926 17.4642C56.5212 17.395 56.5632 17.3321 56.6162 17.2792C56.6692 17.2262 56.732 17.1842 56.8012 17.1556C56.8705 17.127 56.9446 17.1122 57.0195 17.1123H58.1689C58.4841 17.1123 58.7392 17.3674 58.7392 17.6825C58.7392 17.9977 58.4841 18.2528 58.1689 18.2528Z" fill="#FBD826"/>
<path d="M58.1602 19.3924C57.8449 19.3924 57.5898 19.1373 57.5898 18.8221V17.6971C57.5898 17.382 57.8449 17.127 58.1602 17.127C58.4754 17.127 58.7305 17.382 58.7305 17.6971V18.8221C58.7305 19.1373 58.4754 19.3924 58.1602 19.3924Z" fill="#FBD826"/>
<path d="M47.9742 6.85324C47.8993 6.85334 47.8252 6.83864 47.756 6.80999C47.6868 6.78134 47.6239 6.7393 47.571 6.68628L46.7579 5.8743C46.6548 5.76658 46.598 5.62278 46.5996 5.47369C46.6013 5.3246 46.6612 5.18209 46.7667 5.07667C46.8721 4.97126 47.0146 4.91132 47.1637 4.9097C47.3128 4.90808 47.4566 4.96491 47.5643 5.06802L48.3774 5.87986C48.457 5.95965 48.5112 6.06124 48.5332 6.17181C48.5551 6.28237 48.5438 6.39696 48.5006 6.5011C48.4575 6.60524 48.3845 6.69426 48.2908 6.75693C48.1971 6.81961 48.0869 6.85312 47.9742 6.85324Z" fill="#184383"/>
<path d="M47.1621 7.65324C47.0494 7.65319 46.9391 7.61972 46.8454 7.55705C46.7517 7.49439 46.6786 7.40535 46.6355 7.30119C46.5923 7.19702 46.581 7.0824 46.603 6.97181C46.625 6.86122 46.6792 6.75963 46.7589 6.67986L47.5542 5.88456C47.6068 5.83009 47.6697 5.78664 47.7393 5.75675C47.8089 5.72686 47.8837 5.71113 47.9595 5.71047C48.0352 5.70981 48.1103 5.72424 48.1804 5.75292C48.2505 5.78159 48.3141 5.82394 48.3677 5.87749C48.4212 5.93104 48.4636 5.99471 48.4923 6.0648C48.5209 6.13489 48.5354 6.20999 48.5347 6.28572C48.534 6.36144 48.5183 6.43628 48.4884 6.50586C48.4585 6.57544 48.4151 6.63837 48.3606 6.69098L47.5653 7.48628C47.5124 7.53931 47.4496 7.58136 47.3804 7.61002C47.3112 7.63867 47.237 7.65336 47.1621 7.65324ZM25.9086 7.67662C25.8337 7.67671 25.7595 7.66201 25.6903 7.63336C25.6211 7.60471 25.5583 7.56267 25.5053 7.50966L24.6935 6.69768C24.5904 6.58998 24.5336 6.44619 24.5352 6.2971C24.5368 6.14802 24.5967 6.00549 24.7022 5.90006C24.8076 5.79462 24.9501 5.73466 25.0992 5.73302C25.2483 5.73137 25.3921 5.78818 25.4998 5.89126L26.3116 6.70324C26.3913 6.783 26.4456 6.88458 26.4675 6.99516C26.4895 7.10574 26.4782 7.22034 26.4351 7.3245C26.3919 7.42867 26.3189 7.51771 26.2252 7.58038C26.1315 7.64305 26.0213 7.67654 25.9086 7.67662Z" fill="#184383"/>
<path d="M25.1129 6.86033C25.0001 6.86025 24.89 6.82676 24.7962 6.76409C24.7025 6.70141 24.6295 6.61237 24.5864 6.50821C24.5432 6.40405 24.5319 6.28944 24.5539 6.17887C24.5759 6.06829 24.6301 5.96671 24.7098 5.88695L25.505 5.09179C25.5579 5.03885 25.6208 4.99685 25.6899 4.9682C25.7591 4.93955 25.8332 4.9248 25.9081 4.9248C25.983 4.9248 26.0571 4.93955 26.1263 4.9682C26.1955 4.99685 26.2583 5.03885 26.3112 5.09179C26.3642 5.14473 26.4062 5.20758 26.4348 5.27675C26.4635 5.34592 26.4782 5.42006 26.4782 5.49493C26.4782 5.5698 26.4635 5.64394 26.4348 5.71311C26.4062 5.78228 26.3642 5.84513 26.3112 5.89807L25.5161 6.69337C25.4632 6.7464 25.4003 6.78845 25.3311 6.81711C25.262 6.84576 25.1878 6.86045 25.1129 6.86033Z" fill="#184383"/>
<path d="M47.9744 6.86509H25.0956C25.0207 6.86513 24.9465 6.85041 24.8773 6.82177C24.8081 6.79313 24.7453 6.75113 24.6923 6.69818C24.6394 6.64522 24.5974 6.58235 24.5687 6.51316C24.5401 6.44397 24.5254 6.36981 24.5254 6.29492C24.5254 5.97968 24.7805 5.72461 25.0956 5.72461H47.9742C48.0491 5.72457 48.1233 5.7393 48.1925 5.76795C48.2617 5.7966 48.3245 5.83861 48.3775 5.89158C48.4304 5.94455 48.4724 6.00744 48.501 6.07665C48.5296 6.14586 48.5443 6.22003 48.5442 6.29492C48.5443 6.3698 48.5297 6.44396 48.5011 6.51316C48.4725 6.58236 48.4305 6.64524 48.3776 6.6982C48.3246 6.75116 48.2618 6.79316 48.1926 6.8218C48.1234 6.85044 48.0492 6.86515 47.9744 6.86509Z" fill="#184383"/>
<path d="M47.9742 67.2885C47.8993 67.2885 47.8251 67.2738 47.7559 67.2451C47.6867 67.2165 47.6239 67.1744 47.571 67.1214L46.7579 66.3084C46.6548 66.2007 46.598 66.0569 46.5996 65.9078C46.6013 65.7587 46.6612 65.6162 46.7667 65.5108C46.8721 65.4053 47.0146 65.3454 47.1637 65.3438C47.3128 65.3422 47.4566 65.399 47.5643 65.5021L48.3774 66.3151C48.4571 66.3948 48.5114 66.4964 48.5333 66.607C48.5553 66.7176 48.544 66.8322 48.5009 66.9364C48.4577 67.0406 48.3846 67.1296 48.2909 67.1923C48.1972 67.2549 48.087 67.2884 47.9742 67.2885Z" fill="#184383"/>
<path d="M47.1604 68.088C47.0476 68.0881 46.9373 68.0547 46.8435 67.9921C46.7496 67.9294 46.6765 67.8404 46.6333 67.7361C46.5902 67.6319 46.5789 67.5172 46.6009 67.4066C46.623 67.296 46.6773 67.1943 46.7572 67.1146L47.5525 66.3195C47.6602 66.2164 47.804 66.1595 47.9531 66.1612C48.1021 66.1628 48.2447 66.2227 48.3501 66.3281C48.4555 66.4336 48.5155 66.5761 48.5171 66.7252C48.5188 66.8742 48.462 67.018 48.3589 67.1258L47.5636 67.9209C47.5107 67.974 47.4479 68.016 47.3787 68.0447C47.3095 68.0734 47.2353 68.0881 47.1604 68.088ZM25.9068 68.1125C25.8319 68.1126 25.7576 68.0979 25.6883 68.0692C25.619 68.0405 25.5561 67.9985 25.5031 67.9454L24.6912 67.1325C24.5891 67.0244 24.5331 66.8808 24.5352 66.7321C24.5373 66.5835 24.5974 66.4415 24.7026 66.3364C24.8078 66.2314 24.9499 66.1715 25.0985 66.1696C25.2472 66.1677 25.3908 66.2239 25.4986 66.3262L26.3105 67.1392C26.3902 67.219 26.4444 67.3206 26.4664 67.4312C26.4884 67.5418 26.477 67.6565 26.4338 67.7607C26.3906 67.8649 26.3175 67.9539 26.2237 68.0165C26.1299 68.0792 26.0196 68.1126 25.9068 68.1125Z" fill="#184383"/>
<path d="M25.1133 67.2954C25.0005 67.2954 24.8902 67.262 24.7964 67.1994C24.7026 67.1367 24.6295 67.0477 24.5863 66.9434C24.5432 66.8392 24.5319 66.7246 24.554 66.6139C24.576 66.5033 24.6304 66.4017 24.7102 66.322L25.5054 65.5269C25.5583 65.4739 25.6212 65.4319 25.6903 65.4033C25.7595 65.3746 25.8336 65.3599 25.9085 65.3599C25.9834 65.3599 26.0575 65.3746 26.1267 65.4033C26.1959 65.4319 26.2587 65.4739 26.3116 65.5269C26.3646 65.5798 26.4066 65.6426 26.4352 65.7118C26.4639 65.781 26.4786 65.8551 26.4786 65.93C26.4786 66.0049 26.4639 66.079 26.4352 66.1482C26.4066 66.2173 26.3646 66.2802 26.3116 66.3331L25.5165 67.1283C25.4636 67.1814 25.4008 67.2235 25.3316 67.2521C25.2624 67.2808 25.1882 67.2955 25.1133 67.2954Z" fill="#184383"/>
<path d="M47.9744 67.2997H25.0956C25.0207 67.2997 24.9465 67.285 24.8773 67.2563C24.8081 67.2277 24.7453 67.1857 24.6923 67.1327C24.6394 67.0798 24.5974 67.0169 24.5687 66.9477C24.5401 66.8785 24.5254 66.8044 24.5254 66.7295C24.5254 66.4143 24.7805 66.1592 25.0956 66.1592H47.9742C48.0491 66.1591 48.1233 66.1739 48.1925 66.2025C48.2617 66.2312 48.3245 66.2732 48.3775 66.3262C48.4304 66.3791 48.4724 66.442 48.501 66.5112C48.5296 66.5804 48.5443 66.6546 48.5442 66.7295C48.5443 66.8044 48.5296 66.8785 48.501 66.9477C48.4724 67.0169 48.4304 67.0798 48.3775 67.1327C48.3246 67.1857 48.2617 67.2277 48.1926 67.2563C48.1234 67.285 48.0492 67.2997 47.9744 67.2997Z" fill="#184383"/>
<path d="M65.0158 47.9392C64.903 47.9393 64.7927 47.9059 64.6988 47.8433C64.605 47.7806 64.5319 47.6916 64.4887 47.5873C64.4455 47.4831 64.4343 47.3684 64.4563 47.2578C64.4784 47.1472 64.5327 47.0455 64.6126 46.9658L65.4257 46.154C65.4786 46.1011 65.5415 46.0591 65.6106 46.0304C65.6798 46.0018 65.7539 45.9871 65.8288 45.9871C65.9037 45.9871 65.9778 46.0018 66.0469 46.0305C66.1161 46.0591 66.179 46.1011 66.2319 46.1541C66.2848 46.207 66.3268 46.2699 66.3554 46.339C66.3841 46.4082 66.3988 46.4823 66.3988 46.5572C66.3988 46.632 66.3841 46.7062 66.3554 46.7753C66.3268 46.8445 66.2848 46.9073 66.2318 46.9603L65.419 47.7721C65.3661 47.8252 65.3033 47.8673 65.2341 47.8959C65.1649 47.9246 65.0907 47.9393 65.0158 47.9392Z" fill="#184383"/>
<path d="M65.011 47.9222C64.9361 47.9223 64.8619 47.9076 64.7927 47.8789C64.7235 47.8502 64.6606 47.8081 64.6078 47.7551L63.8125 46.9599C63.7094 46.8522 63.6526 46.7084 63.6542 46.5593C63.6559 46.4102 63.7158 46.2677 63.8213 46.1623C63.9267 46.0569 64.0692 45.997 64.2183 45.9953C64.3674 45.9937 64.5112 46.0506 64.6189 46.1537L65.4142 46.9488C65.4939 47.0286 65.5481 47.1302 65.5701 47.2408C65.5921 47.3514 65.5807 47.466 65.5376 47.5701C65.4944 47.6743 65.4214 47.7634 65.3277 47.826C65.2339 47.8887 65.1237 47.9221 65.011 47.9222ZM64.1911 27.0127C64.0784 27.0126 63.9682 26.9792 63.8745 26.9165C63.7807 26.8538 63.7077 26.7648 63.6645 26.6606C63.6214 26.5565 63.6101 26.4419 63.632 26.3313C63.654 26.2207 63.7082 26.1191 63.7879 26.0393L64.6011 25.2273C64.6537 25.1729 64.7166 25.1294 64.7862 25.0995C64.8558 25.0696 64.9306 25.0539 65.0063 25.0532C65.082 25.0526 65.1571 25.067 65.2272 25.0957C65.2973 25.1244 65.361 25.1667 65.4145 25.2203C65.4681 25.2738 65.5104 25.3375 65.5391 25.4076C65.5678 25.4777 65.5822 25.5528 65.5816 25.6285C65.5809 25.7042 65.5652 25.7791 65.5353 25.8486C65.5054 25.9182 65.4619 25.9811 65.4075 26.0338L64.5944 26.8457C64.5414 26.8987 64.4786 26.9408 64.4094 26.9694C64.3402 26.9981 64.266 27.0128 64.1911 27.0127Z" fill="#184383"/>
<path d="M65.804 27.0131C65.7291 27.0132 65.655 26.9985 65.5858 26.9698C65.5167 26.9412 65.4539 26.8992 65.4011 26.8461L64.6058 26.0508C64.5513 25.9982 64.5078 25.9353 64.4779 25.8657C64.4481 25.7961 64.4323 25.7213 64.4317 25.6456C64.431 25.5699 64.4454 25.4948 64.4741 25.4247C64.5028 25.3546 64.5451 25.2909 64.5987 25.2374C64.6522 25.1838 64.7159 25.1415 64.786 25.1128C64.8561 25.0841 64.9312 25.0697 65.0069 25.0703C65.0826 25.071 65.1575 25.0867 65.2271 25.1166C65.2966 25.1465 65.3596 25.19 65.4122 25.2444L66.2072 26.0397C66.2869 26.1195 66.3411 26.2211 66.3631 26.3317C66.3851 26.4423 66.3738 26.5569 66.3306 26.6611C66.2875 26.7652 66.2144 26.8543 66.1207 26.9169C66.0269 26.9796 65.9167 27.0131 65.804 27.0131Z" fill="#184383"/>
<path d="M65.0059 47.9395C64.6906 47.9395 64.4355 47.6845 64.4355 47.3694V25.6313C64.4355 25.3161 64.6906 25.061 65.0059 25.061C65.3211 25.061 65.5762 25.3161 65.5762 25.6313V47.3695C65.5762 47.4444 65.5614 47.5186 65.5328 47.5877C65.5041 47.6569 65.4621 47.7198 65.4092 47.7727C65.3562 47.8257 65.2933 47.8677 65.2241 47.8963C65.1549 47.9249 65.0807 47.9396 65.0059 47.9395Z" fill="#184383"/>
<path d="M7.99373 47.9395C7.881 47.9395 7.77081 47.906 7.6771 47.8433C7.58339 47.7806 7.51035 47.6916 7.46722 47.5874C7.42409 47.4833 7.41279 47.3687 7.43476 47.2581C7.45674 47.1475 7.51099 47.0459 7.59067 46.9662L8.40365 46.1543C8.51067 46.0474 8.65577 45.9873 8.80707 45.9873C8.95837 45.9873 9.10347 46.0474 9.2105 46.1543C9.31729 46.2613 9.37723 46.4064 9.37712 46.5576C9.37701 46.7088 9.31688 46.8537 9.20993 46.9606L8.39695 47.7724C8.34407 47.8255 8.28123 47.8676 8.21203 47.8963C8.14283 47.9249 8.06864 47.9396 7.99373 47.9395Z" fill="#184383"/>
<path d="M7.9882 47.9229C7.91331 47.923 7.83916 47.9083 7.76999 47.8796C7.70081 47.8509 7.63799 47.8089 7.58513 47.7558L6.78983 46.9607C6.68674 46.8529 6.62994 46.7091 6.63158 46.5601C6.63323 46.411 6.69319 46.2685 6.79862 46.163C6.90406 46.0576 7.04658 45.9977 7.19567 45.9961C7.34476 45.9945 7.48855 46.0513 7.59625 46.1544L8.39141 46.9495C8.47123 47.0293 8.52561 47.1309 8.54766 47.2415C8.5697 47.3521 8.55843 47.4668 8.51525 47.571C8.47208 47.6753 8.39895 47.7643 8.30513 47.827C8.21131 47.8896 8.10101 47.923 7.9882 47.9229ZM7.16851 27.0134C7.05564 27.0136 6.94525 26.9803 6.85134 26.9177C6.75742 26.8551 6.68423 26.766 6.64103 26.6617C6.59783 26.5574 6.58658 26.4427 6.60871 26.332C6.63083 26.2213 6.68534 26.1197 6.7653 26.04L7.57843 25.2281C7.68545 25.1211 7.83055 25.061 7.98185 25.061C8.13315 25.061 8.27825 25.1211 8.38528 25.2281C8.49208 25.3351 8.55202 25.4802 8.55191 25.6314C8.5518 25.7826 8.49166 25.9276 8.3847 26.0345L7.57172 26.8465C7.51883 26.8995 7.45598 26.9415 7.38678 26.9702C7.31758 26.9988 7.24341 27.0135 7.16851 27.0134Z" fill="#184383"/>
<path d="M8.7825 27.0129C8.70761 27.013 8.63344 26.9983 8.56424 26.9696C8.49505 26.941 8.43219 26.8989 8.37929 26.8459L7.58413 26.0506C7.48103 25.9429 7.4242 25.7991 7.42581 25.6501C7.42743 25.501 7.48737 25.3585 7.59279 25.253C7.6982 25.1476 7.84072 25.0876 7.9898 25.086C8.13889 25.0843 8.28269 25.1411 8.39041 25.2442L9.18557 26.0395C9.26524 26.1193 9.3195 26.2209 9.34147 26.3314C9.36344 26.442 9.35215 26.5566 9.30901 26.6608C9.26588 26.7649 9.19285 26.854 9.09913 26.9167C9.00542 26.9793 8.89524 27.0128 8.7825 27.0129Z" fill="#184383"/>
<path d="M7.98228 47.9395C7.90739 47.9396 7.83323 47.9249 7.76404 47.8962C7.69485 47.8676 7.63198 47.8256 7.57903 47.7726C7.52607 47.7197 7.48408 47.6568 7.45543 47.5876C7.42679 47.5184 7.41207 47.4443 7.41211 47.3694V25.6313C7.41211 25.3161 7.66718 25.061 7.98228 25.061C8.29752 25.061 8.55259 25.3161 8.55259 25.6313V47.3695C8.55261 47.4444 8.53787 47.5186 8.50921 47.5877C8.48055 47.6569 8.43854 47.7198 8.38558 47.7727C8.33261 47.8257 8.26973 47.8677 8.20053 47.8963C8.13133 47.9249 8.05717 47.9396 7.98228 47.9395Z" fill="#184383"/>
</g>
<defs>
<clipPath id="clip0_109_31767">
<rect width="73" height="73" fill="white"/>
</clipPath>
</defs>
</svg>
